<svg width="241" height="64" viewBox="0 0 241 64" fill="none" xmlns="http://www.w3.org/2000/svg">
<path d="M225.794 41.3763H229.743V31.281C229.743 26.0991 229.982 22.6551 230.459 20.9646C231.096 18.7528 232.004 17.1098 233.198 16.0671C234.392 15.0086 235.65 14.4872 236.94 14.4872C237.497 14.4872 238.182 14.661 238.978 15.0086L241 11.7699C239.774 11.0906 238.628 10.743 237.561 10.743C236.144 10.743 234.774 11.1696 233.469 12.0227C232.147 12.8758 230.905 14.1555 229.727 15.8775V11.5171H225.778V41.3763H225.794ZM193.36 23.4292C194.157 20.6803 195.335 18.6264 196.879 17.252C198.997 15.3562 201.529 14.424 204.49 14.424C206.273 14.424 207.977 14.7874 209.617 15.5458C211.241 16.2883 212.547 17.2836 213.534 18.5001C214.521 19.7324 215.27 21.3596 215.795 23.4134H193.36V23.4292ZM204.649 42.1346C206.863 42.1346 208.853 41.8028 210.604 41.1393C212.356 40.4758 213.932 39.4962 215.333 38.2166C216.734 36.9369 217.976 35.2622 219.043 33.1768L215.779 31.4864C214.601 33.4296 213.502 34.8515 212.483 35.7204C211.464 36.5893 210.238 37.3002 208.789 37.8216C207.34 38.3429 205.844 38.6115 204.315 38.6115C201.146 38.6115 198.472 37.5056 196.322 35.2781C194.157 33.0663 193.042 30.2225 192.962 26.7627H220.03C219.998 22.6866 218.884 19.2742 216.718 16.5568C213.645 12.6862 209.553 10.7588 204.426 10.7588C199.443 10.7588 195.462 12.6546 192.501 16.4147C190.16 19.3848 188.982 22.7499 188.982 26.5415C188.982 30.5701 190.367 34.1722 193.138 37.3635C195.908 40.539 199.745 42.1346 204.649 42.1346ZM155.927 41.3763H159.796V30.4279C159.796 26.4783 159.971 23.761 160.354 22.3075C160.943 20.0325 162.169 18.1367 164.016 16.6042C165.863 15.0718 167.964 14.2977 170.305 14.2977C172.359 14.2977 174.015 14.8032 175.273 15.7985C176.547 16.7938 177.406 18.2789 177.884 20.2537C178.155 21.407 178.298 23.6978 178.298 27.1418V41.3763H182.167V26.0201C182.167 21.9441 181.753 18.9424 180.925 17.0308C180.097 15.1192 178.823 13.6025 177.072 12.465C175.32 11.3275 173.33 10.7588 171.085 10.7588C168.904 10.7588 166.866 11.2801 164.987 12.2912C163.108 13.3023 161.388 14.8348 159.812 16.8886V0H155.943V41.3763H155.927ZM140.116 41.3763H143.985V14.8506H150.131V11.5329H143.985V0.442356H140.116V11.5329H134.846V14.8506H140.116V41.3763ZM102.842 23.4292C103.638 20.6803 104.801 18.6264 106.361 17.252C108.495 15.3562 111.026 14.424 113.988 14.424C115.771 14.424 117.475 14.7874 119.115 15.5458C120.739 16.2883 122.044 17.2836 123.032 18.5001C124.019 19.7324 124.767 21.3596 125.293 23.4134H102.842V23.4292ZM114.131 42.1346C116.344 42.1346 118.335 41.8028 120.086 41.1393C121.837 40.4758 123.414 39.4962 124.815 38.2166C126.2 36.9369 127.442 35.2622 128.525 33.1768L125.261 31.4864C124.083 33.4296 122.984 34.8515 121.965 35.7204C120.946 36.5893 119.72 37.3002 118.271 37.8216C116.822 38.3429 115.325 38.6115 113.797 38.6115C110.628 38.6115 107.953 37.5056 105.788 35.2781C103.638 33.0663 102.508 30.2225 102.444 26.7627H129.512C129.48 22.6866 128.366 19.2742 126.2 16.5568C123.127 12.6862 119.035 10.7588 113.908 10.7588C108.924 10.7588 104.944 12.6546 101.966 16.4147C99.6259 19.3848 98.4476 22.7499 98.4476 26.5415C98.4476 30.5701 99.8329 34.1722 102.603 37.3635C105.39 40.539 109.227 42.1346 114.131 42.1346ZM87.9866 17.2362L94.2123 11.4539L91.5214 8.57862L85.2958 14.3451L87.9866 17.2362ZM76.7296 36.2417C70.4403 36.2417 66.1094 30.9809 66.1094 25.483C66.1094 19.5901 70.8861 14.5031 76.7296 14.5031C82.4298 14.5031 87.3657 19.5901 87.3657 25.483C87.3498 31.3442 82.589 36.2417 76.7296 36.2417ZM76.7455 39.8912C85.2639 39.8912 91.2826 32.9715 91.2826 25.404C91.2826 17.4574 84.9296 10.743 76.7455 10.743C68.1475 10.743 62.1766 17.7733 62.1766 25.404C62.1607 33.1927 68.3226 39.8912 76.7455 39.8912ZM76.9525 54.1572C69.5168 54.1572 64.0714 47.8853 64.0714 41.1551C64.0714 34.03 69.9785 27.9318 76.9525 27.9318C83.9105 27.9318 89.8496 34.03 89.8496 41.1551C89.8496 48.2486 84.0538 54.1572 76.9525 54.1572ZM38.9778 38.501C36.8442 38.501 34.8698 37.9796 33.0706 36.9685C31.2714 35.9574 29.8384 34.5197 28.7875 32.6555C27.7367 30.7913 27.2112 28.7849 27.2112 26.6205C27.2112 23.2712 28.3735 20.4117 30.6823 18.0577C32.991 15.7037 35.7615 14.5188 38.9778 14.5188C42.1782 14.5188 44.9487 15.7037 47.2733 18.0577C49.598 20.4117 50.7444 23.2712 50.7444 26.6205C50.7444 28.7849 50.2189 30.7913 49.1681 32.6555C48.1172 34.5197 46.6842 35.9574 44.885 36.9685C43.1017 37.9796 41.1273 38.501 38.9778 38.501ZM38.9937 42.1346C43.5953 42.1346 47.3529 40.5864 50.2667 37.4583C53.1964 34.346 54.6613 30.6965 54.6613 26.5257C54.6613 22.3865 53.276 18.7844 50.5056 15.7511C47.4644 12.4176 43.6271 10.743 38.9937 10.743C34.3444 10.743 30.4912 12.4176 27.4341 15.7669C24.6636 18.8002 23.2784 22.3865 23.2784 26.5257C23.2784 30.6965 24.7433 34.346 27.673 37.4583C30.6027 40.5864 34.3763 42.1346 38.9937 42.1346ZM9.07571 41.3763H13.2155V4.96075H22.2912V1.01113H0V4.96075H9.07571V41.3763ZM76.9684 57.8067C86.7288 57.8067 93.7824 49.8758 93.7824 41.0761C93.7824 31.8972 86.4103 24.1717 76.9684 24.1717C67.2399 24.1717 60.1226 32.2131 60.1226 41.0761C60.1226 50.097 67.431 57.8067 76.9684 57.8067Z" fill="#EDE3F6"/>
<path d="M101.505 63.922C100.025 63.922 98.4801 63.5271 97.1904 62.9899L97.5089 60.9993C98.703 61.6154 100.311 62.1052 101.601 62.1052C103.034 62.1052 104.053 61.4733 104.053 60.4148C104.053 59.3879 103.384 58.9929 101.569 58.3767C98.9419 57.4604 97.6044 56.6547 97.6044 54.7115C97.6044 52.5787 99.3877 51.1252 101.808 51.1252C103.241 51.1252 104.499 51.4412 105.454 51.8678L105.136 53.9058C104.005 53.3212 102.875 52.9736 101.744 52.9736C100.502 52.9736 99.6584 53.6372 99.6584 54.4429C99.6584 55.4066 100.359 55.7384 102.301 56.4019C104.929 57.3182 106.091 58.1871 106.091 60.1303C106.107 62.4527 104.244 63.922 101.505 63.922Z" fill="#7EC1FF"/>
<path d="M108.877 63.7473V51.298H116.679V53.2412H111.106V56.3062H115.564L115.883 58.2494H111.106V61.8041H116.854V63.7473H108.877Z" fill="#7EC1FF"/>
<path d="M128.048 63.7473L121.759 54.5525V63.7473H119.721V51.298H121.95L127.968 60.1136V51.298H130.007V63.7473H128.048Z" fill="#7EC1FF"/>
<path d="M133.668 63.7473V51.298H135.929V63.7473H133.668Z" fill="#7EC1FF"/>
<path d="M144.926 64C141.678 64 138.892 61.5671 138.892 57.5384C138.892 53.4782 141.71 51.061 144.926 51.061C148.174 51.061 150.945 53.4624 150.945 57.5226C150.945 61.5354 148.142 64 144.926 64ZM144.926 52.9411C142.554 52.9411 141.168 54.9001 141.168 57.5069C141.168 60.0346 142.633 62.12 144.926 62.12C147.283 62.12 148.668 60.1136 148.668 57.5226C148.668 54.9791 147.203 52.9411 144.926 52.9411Z" fill="#7EC1FF"/>
<path d="M161.039 63.9052L157.392 58.9444H156.023V63.7631H153.794V51.3137H157.679C160.545 51.3137 162.408 52.6882 162.408 55.1528C162.408 57.0012 161.373 58.1546 159.781 58.6917L163.315 63.4155L161.039 63.9052ZM157.663 53.2096H156.023V57.2066H157.663C159.271 57.2066 160.195 56.4641 160.195 55.137C160.195 53.9047 159.303 53.2096 157.663 53.2096Z" fill="#7EC1FF"/>
<path d="M179.047 63.7473V58.2652H173.283V63.7473H171.054V51.298H173.283V56.2588H179.047V51.298H181.308V63.7473H179.047Z" fill="#7EC1FF"/>
<path d="M184.858 63.7473V51.298H192.66V53.2412H187.088V56.3062H191.546L191.864 58.2494H187.088V61.8041H192.835V63.7473H184.858Z" fill="#7EC1FF"/>
<path d="M196.641 63.747H194.46L199.412 51.1399H201.88L206.784 63.4785L204.587 63.9683L203.345 60.6347H197.804L196.641 63.747ZM200.606 53.2885H200.558L198.536 58.6916H202.628L200.606 53.2885Z" fill="#7EC1FF"/>
<path d="M209.093 63.7473V51.298H211.322V61.8357H216.083L216.401 63.7473H209.093Z" fill="#7EC1FF"/>
<path d="M222.483 53.257V63.7473H220.222V53.257H216.289V51.298H226.288L226.591 53.257H222.483Z" fill="#7EC1FF"/>
<path d="M236.988 63.7473V58.2652H231.224V63.7473H228.995V51.298H231.224V56.2588H236.988V51.298H239.249V63.7473H236.988Z" fill="#7EC1FF"/>
</svg>
