<svg id="Layer_1" data-name="Layer 1" xmlns="http://www.w3.org/2000/svg" viewBox="0 0 588.29 581.26"><defs><style>.cls-1{fill:none;stroke:#fff;stroke-miterlimit:10;stroke-width:9.53px;}</style></defs><path class="cls-1" d="M423.09,151H165.31A14.31,14.31,0,0,0,151,165.31v84.18a14.32,14.32,0,0,0,14.28,14.29h72.4V416A14.33,14.33,0,0,0,252,430.24h84.18A14.33,14.33,0,0,0,350.46,416V263.78H423a14.33,14.33,0,0,0,14.29-14.29V165.31A14.14,14.14,0,0,0,423.09,151ZM350.46,263.78H237.71a56.38,56.38,0,0,1,56.43-56.32h0a56.13,56.13,0,0,1,56.32,56.32Z"/></svg>