<svg xmlns="http://www.w3.org/2000/svg" width="320" height="120" viewBox="40 40 320 120" fill="none">
  <path d="M257.841 81.7827H261.511V72.3203C261.511 67.4632 261.733 64.235 262.177 62.6505C262.769 60.5774 263.612 59.0373 264.722 58.06C265.832 57.0678 267.001 56.5791 268.199 56.5791C268.717 56.5791 269.354 56.742 270.093 57.0678L271.973 54.0321C270.833 53.3954 269.768 53.0696 268.777 53.0696C267.46 53.0696 266.187 53.4694 264.974 54.2691C263.745 55.0687 262.591 56.2682 261.496 57.8823V53.7952H257.826V81.7827H257.841ZM227.699 64.9606C228.439 62.384 229.534 60.4589 230.969 59.1706C232.937 57.3936 235.29 56.5199 238.042 56.5199C239.7 56.5199 241.283 56.8605 242.807 57.5713C244.316 58.2673 245.53 59.2002 246.447 60.3404C247.365 61.4955 248.06 63.0207 248.549 64.9458H227.699V64.9606ZM238.19 82.4935C240.247 82.4935 242.097 82.1825 243.725 81.5606C245.352 80.9386 246.817 80.0205 248.119 78.821C249.422 77.6216 250.576 76.0519 251.567 74.0972L248.534 72.5128C247.439 74.3342 246.418 75.6669 245.471 76.4814C244.524 77.2958 243.384 77.9622 242.038 78.4508C240.691 78.9395 239.3 79.1912 237.88 79.1912C234.935 79.1912 232.449 78.1547 230.451 76.0667C228.439 73.9936 227.403 71.3281 227.329 68.0851H252.485C252.455 64.2646 251.419 61.066 249.407 58.519C246.551 54.891 242.748 53.0844 237.983 53.0844C233.352 53.0844 229.652 54.8614 226.9 58.3857C224.725 61.1697 223.63 64.3238 223.63 67.8778C223.63 71.6539 224.917 75.0302 227.492 78.0214C230.067 80.9979 233.633 82.4935 238.19 82.4935ZM192.91 81.7827H196.506V71.5206C196.506 67.8186 196.669 65.2716 197.024 63.9092C197.572 61.7768 198.711 59.9998 200.428 58.5634C202.144 57.127 204.097 56.4014 206.273 56.4014C208.181 56.4014 209.72 56.8753 210.889 57.8082C212.073 58.7411 212.872 60.1331 213.316 61.9841C213.568 63.0651 213.701 65.2123 213.701 68.4405V81.7827H217.297V67.3891C217.297 63.5686 216.912 60.755 216.142 58.9632C215.373 57.1714 214.189 55.7499 212.561 54.6837C210.934 53.6175 209.084 53.0844 206.998 53.0844C204.97 53.0844 203.076 53.5731 201.33 54.5208C199.584 55.4685 197.986 56.9049 196.521 58.83V43H192.925V81.7827H192.91ZM178.217 81.7827H181.812V56.9197H187.524V53.81H181.812V43.4146H178.217V53.81H173.319V56.9197H178.217V81.7827ZM143.576 64.9606C144.316 62.384 145.396 60.4589 146.846 59.1706C148.829 57.3936 151.182 56.5199 153.934 56.5199C155.592 56.5199 157.175 56.8605 158.699 57.5713C160.208 58.2673 161.422 59.2002 162.339 60.3404C163.257 61.4955 163.952 63.0207 164.44 64.9458H143.576V64.9606ZM154.067 82.4935C156.124 82.4935 157.974 82.1825 159.602 81.5606C161.229 80.9386 162.694 80.0205 163.996 78.821C165.284 77.6216 166.438 76.0519 167.444 74.0972L164.411 72.5128C163.316 74.3342 162.295 75.6669 161.348 76.4814C160.401 77.2958 159.261 77.9622 157.915 78.4508C156.568 78.9395 155.177 79.1912 153.757 79.1912C150.812 79.1912 148.326 78.1547 146.314 76.0667C144.316 73.9936 143.265 71.3281 143.206 68.0851H168.362C168.332 64.2646 167.296 61.066 165.284 58.519C162.428 54.891 158.625 53.0844 153.86 53.0844C149.229 53.0844 145.529 54.8614 142.762 58.3857C140.587 61.1697 139.492 64.3238 139.492 67.8778C139.492 71.6539 140.779 75.0302 143.354 78.0214C145.944 80.9979 149.51 82.4935 154.067 82.4935ZM129.77 59.1557L135.556 53.7359L133.055 51.0409L127.269 56.4459L129.77 59.1557ZM119.308 76.97C113.463 76.97 109.439 72.0389 109.439 66.8856C109.439 61.3622 113.878 56.594 119.308 56.594C124.606 56.594 129.193 61.3622 129.193 66.8856C129.178 72.3795 124.754 76.97 119.308 76.97ZM119.323 80.3907C127.24 80.3907 132.833 73.9047 132.833 66.8116C132.833 59.3631 126.929 53.0696 119.323 53.0696C111.333 53.0696 105.784 59.6592 105.784 66.8116C105.769 74.112 111.495 80.3907 119.323 80.3907ZM119.516 93.7625C112.605 93.7625 107.545 87.8837 107.545 81.5754C107.545 74.8969 113.034 69.1809 119.516 69.1809C125.982 69.1809 131.501 74.8969 131.501 81.5754C131.501 88.2243 126.115 93.7625 119.516 93.7625ZM84.2239 79.0876C82.2411 79.0876 80.4062 78.5989 78.7341 77.6512C77.062 76.7035 75.7302 75.3559 74.7536 73.6086C73.777 71.8612 73.2887 69.9805 73.2887 67.9518C73.2887 64.8125 74.3689 62.1322 76.5145 59.9258C78.6601 57.7194 81.2349 56.6087 84.2239 56.6087C87.1982 56.6087 89.7729 57.7194 91.9333 59.9258C94.0938 62.1322 95.1592 64.8125 95.1592 67.9518C95.1592 69.9805 94.6709 71.8612 93.6942 73.6086C92.7176 75.3559 91.3858 76.7035 89.7137 77.6512C88.0564 78.5989 86.2216 79.0876 84.2239 79.0876ZM84.2387 82.4935C88.5152 82.4935 92.0073 81.0423 94.7152 78.1103C97.438 75.1931 98.7993 71.7723 98.7993 67.863C98.7993 63.9832 97.512 60.6069 94.9372 57.7638C92.1109 54.6392 88.5448 53.0696 84.2387 53.0696C79.9179 53.0696 76.3369 54.6393 73.4958 57.7786C70.9211 60.6218 69.6337 63.9832 69.6337 67.863C69.6337 71.7723 70.9951 75.1931 73.7178 78.1103C76.4405 81.0423 79.9475 82.4935 84.2387 82.4935ZM56.4345 81.7827H60.2818V47.6498H68.7163V43.9477H48V47.6498H56.4345V81.7827ZM119.53 97.1832C128.601 97.1832 135.156 89.7495 135.156 81.5013C135.156 72.8977 128.305 65.6566 119.53 65.6566C110.489 65.6566 103.875 73.1939 103.875 81.5013C103.875 89.9568 110.667 97.1832 119.53 97.1832Z" fill="#451A78"/>
  <path d="M142.333 102.915C140.957 102.915 139.522 102.545 138.323 102.041L138.619 100.176C139.729 100.753 141.224 101.212 142.422 101.212C143.754 101.212 144.701 100.62 144.701 99.6276C144.701 98.6651 144.079 98.2949 142.393 97.7174C139.951 96.8585 138.708 96.1033 138.708 94.2818C138.708 92.2827 140.365 90.9204 142.614 90.9204C143.946 90.9204 145.115 91.2166 146.003 91.6164L145.707 93.5267C144.657 92.9788 143.606 92.6529 142.555 92.6529C141.401 92.6529 140.617 93.2749 140.617 94.0301C140.617 94.9334 141.268 95.2444 143.073 95.8663C145.515 96.7252 146.595 97.5396 146.595 99.361C146.61 101.538 144.878 102.915 142.333 102.915Z" fill="#1572C8"/>
  <path d="M149.184 102.751V91.0825H156.435V92.904H151.256V95.7768H155.399L155.695 97.5982H151.256V100.93H156.598V102.751H149.184Z" fill="#1572C8"/>
  <path d="M167.001 102.751L161.156 94.133V102.751H159.262V91.0825H161.333L166.927 99.3456V91.0825H168.821V102.751H167.001Z" fill="#1572C8"/>
  <path d="M172.224 102.751V91.0825H174.325V102.751H172.224Z" fill="#1572C8"/>
  <path d="M182.686 102.988C179.667 102.988 177.078 100.708 177.078 96.9317C177.078 93.126 179.697 90.8604 182.686 90.8604C185.705 90.8604 188.279 93.1112 188.279 96.9169C188.279 100.678 185.675 102.988 182.686 102.988ZM182.686 92.6225C180.481 92.6225 179.194 94.4588 179.194 96.9021C179.194 99.2714 180.555 101.226 182.686 101.226C184.876 101.226 186.163 99.3455 186.163 96.9169C186.163 94.5328 184.802 92.6225 182.686 92.6225Z" fill="#1572C8"/>
  <path d="M197.661 102.899L194.272 98.2496H192.999V102.766H190.928V91.0972H194.538C197.202 91.0972 198.933 92.3855 198.933 94.6956C198.933 96.4282 197.971 97.5092 196.492 98.0127L199.777 102.44L197.661 102.899ZM194.523 92.8742H192.999V96.6207H194.523C196.018 96.6207 196.876 95.9247 196.876 94.6808C196.876 93.5258 196.048 92.8742 194.523 92.8742Z" fill="#1572C8"/>
  <path d="M214.396 102.751V97.613H209.04V102.751H206.968V91.0825H209.04V95.7323H214.396V91.0825H216.498V102.751H214.396Z" fill="#1572C8"/>
  <path d="M219.797 102.751V91.0825H227.048V92.904H221.869V95.7768H226.012L226.308 97.5982H221.869V100.93H227.211V102.751H219.797Z" fill="#1572C8"/>
  <path d="M230.747 102.751H228.72L233.322 90.9343H235.616L240.173 102.5L238.131 102.959L236.977 99.834H231.828L230.747 102.751ZM234.432 92.9482H234.388L232.508 98.0126H236.311L234.432 92.9482Z" fill="#1572C8"/>
  <path d="M242.319 102.751V91.0825H244.391V100.96H248.815L249.111 102.751H242.319Z" fill="#1572C8"/>
  <path d="M254.764 92.9188V102.751H252.662V92.9188H249.007V91.0825H258.3L258.581 92.9188H254.764Z" fill="#1572C8"/>
  <path d="M268.244 102.751V97.613H262.887V102.751H260.816V91.0825H262.887V95.7323H268.244V91.0825H270.345V102.751H268.244Z" fill="#1572C8"/>
</svg>