<svg xmlns="http://www.w3.org/2000/svg" width="32" height="32" viewBox="0 0 32 32" fill="none">
    <path fill-rule="evenodd" clip-rule="evenodd" d="M21.76 6.94839V5.76C21.76 2.57884 19.1812 0 16 0C12.8189 0 10.24 2.57883 10.24 5.75999V14.9957C10.24 16.0011 10.4976 16.9464 10.9504 17.769L9.63568 19.0851C9.15131 18.2409 8.83356 17.3055 8.70402 16.3318C8.63118 15.7844 8.19029 15.3347 7.638 15.3347H6.48286C5.93057 15.3347 5.47804 15.7834 5.52909 16.3333C5.69776 18.1505 6.32385 19.8886 7.3401 21.3831L1.45616 27.273C0.802591 27.9273 0.789843 29.0004 1.42768 29.67C2.06553 30.3396 3.11242 30.352 3.76599 29.6978L30.0085 3.42844C30.6621 2.7742 30.6748 1.70104 30.037 1.03147C29.3991 0.361892 28.3522 0.349456 27.6987 1.00369L21.76 6.94839ZM15.6091 20.7427L21.76 14.5854V14.9957C21.76 18.1769 19.1812 20.7557 16 20.7557C15.8687 20.7557 15.7383 20.7513 15.6091 20.7427ZM13.8752 22.4783L11.4243 24.9318C12.3153 25.3681 13.2654 25.6762 14.2468 25.8443V28.447H10.6311C10.0788 28.447 9.63106 28.8947 9.63106 29.447V30.9999C9.63106 31.5522 10.0788 31.9999 10.6311 31.9999L21.3682 31.9999C21.9205 31.9999 22.3682 31.5522 22.3682 30.9999V29.447C22.3682 28.8947 21.9205 28.447 21.3682 28.447H17.7525V25.8445C19.8917 25.4781 21.8824 24.4468 23.4368 22.8716C25.1755 21.1094 26.2425 18.7938 26.4709 16.3333C26.522 15.7834 26.0694 15.3347 25.5172 15.3347H24.362C23.8097 15.3347 23.3688 15.7844 23.296 16.3318C23.0817 17.9425 22.3524 19.4484 21.2057 20.6105C19.8251 22.0097 17.9525 22.7958 16 22.7958C15.2736 22.7958 14.5583 22.687 13.8752 22.4783Z" fill="#7EC1FF" />
</svg>