<svg xmlns="http://www.w3.org/2000/svg" width="16" height="16" viewBox="0 0 16 16" fill="none">
    <path d="M10.6219 2.71134L5.37794 7.95532C5.3486 7.79691 5.33327 7.63358 5.33327 7.46666V3.2C5.33327 1.72724 6.52718 0.533329 7.99994 0.533329C9.30578 0.533329 10.3924 1.47195 10.6219 2.71134Z" fill="#ECE5EE" />
    <path d="M4.51772 8.81554L3.31528 10.018C2.90167 9.26013 2.6666 8.39085 2.6666 7.46666H4.2666C4.2666 7.94231 4.35555 8.39718 4.51772 8.81554Z" fill="#ECE5EE" />
    <path d="M6.1838 12.4828L7.49981 11.1668C7.6634 11.1887 7.83035 11.2 7.99994 11.2C10.0618 11.2 11.7333 9.52853 11.7333 7.46666H13.3333C13.3333 10.0469 11.501 12.1992 9.0666 12.6933V13.8667H11.1999V15.4667H4.79994V13.8667H6.93327V12.6933C6.67625 12.6411 6.42595 12.5705 6.1838 12.4828Z" fill="#ECE5EE" />
    <path d="M14.6666 0.266663L0.266602 14.6667L1.33327 15.7333L15.7333 1.33333L14.6666 0.266663Z" fill="#ECE5EE" />
</svg>