<svg id="Layer_1" data-name="Layer 1" xmlns="http://www.w3.org/2000/svg" viewBox="0 0 817.81 319.74"><defs><style>.cls-1{fill:#fff;}</style></defs><g id="Layer_2" data-name="Layer 2"><g id="Layer_1-2" data-name="Layer 1-2"><path class="cls-1" d="M359.23,230.89a14.13,14.13,0,0,1-9.72-3.45l2.94-3.92a9.92,9.92,0,0,0,6.53,2.89c2.32,0,3.15-1,3.15-2.16s-1-1.66-2.93-2.09l-2.8-.65c-2.75-.64-5.91-2.15-5.91-6.39,0-3.21,2.71-6.54,8.15-6.54a13.19,13.19,0,0,1,8.75,3.17l-2.93,3.88a9.73,9.73,0,0,0-6-2.49c-2.06,0-2.52,1-2.52,1.66,0,1.14.94,1.59,2.56,2l3,.73c3.79.94,6,2.8,6,6.16C367.6,227.69,364.68,230.89,359.23,230.89Z"/><path class="cls-1" d="M393.91,209v4.47h-9.72v3.91h8.73v4.15h-8.73v4.56h10v4.46H378.84V209Z"/><path class="cls-1" d="M411.26,209l8,12.34V209h5.15v21.55h-4.89L410.81,217v13.54h-5.15V209Z"/><path class="cls-1" d="M442.14,209v21.55h-5.38V209Z"/><path class="cls-1" d="M453.35,219.78c0-6.09,4.09-11.13,11.1-11.13s11.12,5,11.12,11.13-4.12,11.11-11.11,11.11S453.35,225.87,453.35,219.78Zm16.71,0c0-3.6-2.15-6.64-5.6-6.64s-5.6,3-5.6,6.64,2.09,6.65,5.6,6.65S470.06,223.38,470.06,219.78Z"/><path class="cls-1" d="M497.64,209c4.67,0,7.81,3.11,7.81,6.84a7.23,7.23,0,0,1-4.67,6.89l4.62,7.82h-6.06l-4.16-7.2h-3v7.2h-5.37V209Zm-5.48,4.22v5.94h4.3c2.13,0,3.54-1.2,3.54-3.2,0-1.76-1.41-2.74-3.54-2.74Z"/><path class="cls-1" d="M536.79,209v8.23h8V209h5.38v21.55h-5.38v-8.87h-8v8.86H531.4V209Z"/><path class="cls-1" d="M577.56,209v4.47h-9.69v3.91h8.74v4.15h-8.74v4.56h10v4.46H562.48V209Z"/><path class="cls-1" d="M587.31,230.52,595.07,209h6.07L609,230.52h-5.7l-1.17-3.45h-8.31l-1.14,3.45Zm13.36-7.76L598,214.67l-2.68,8.09Z"/><path class="cls-1" d="M624.62,209v17.09h8.49v4.46H619.24V209Z"/><path class="cls-1" d="M656.54,209v4.47h-6v17.08h-5.39V213.44H639V209Z"/><path class="cls-1" d="M672.51,209v8.23h8V209h5.39v21.55h-5.39v-8.87h-8v8.86h-5.39V209Z"/><path class="cls-1" d="M169.66,97.24l.13,10a2.72,2.72,0,0,1-2.65,2.8H138v71.08a2.67,2.67,0,0,1-2.66,2.67H123.76a2.67,2.67,0,0,1-2.66-2.67V110.17H91.88a2.67,2.67,0,0,1-2.66-2.68h0V97.37a2.67,2.67,0,0,1,2.66-2.67L167,94.56A2.68,2.68,0,0,1,169.66,97.24Z"/><path class="cls-1" d="M163.13,150.75c0-19.6,12.39-35.55,39.42-35.55s39.28,16,39.28,35.55-12.39,35.56-39.28,35.56S163.13,170.31,163.13,150.75Zm39.42,22c15.31,0,21.83-9.86,21.83-22s-6.65-22-21.83-22c-15.45,0-22,9.86-22,22S187.1,172.73,202.55,172.73Z"/><path class="cls-1" d="M255.54,199.88l4.14-4.93c.93-1.06,2.8-1.86,4.12.26,5.46,8.67,17.74,11.06,25,11.06,21,0,23.43-9.06,23.7-17.18V172.46c-3.34,11.32-18.24,13.85-27.44,13.85-24.1,0-34.62-16-34.62-35.56s13.19-35.51,36.49-35.51c9.18,0,22.77,4.66,25.57,14.24V119.9a2.67,2.67,0,0,1,2.66-2.66h11.85a2.67,2.67,0,0,1,2.66,2.66v69.24c0,20.53-16.24,32.62-40.47,32.62-14.94,0-28.63-5.19-35.3-18.51C253.28,201.74,254.62,201.11,255.54,199.88Zm34.37-27.15c15.31,0,21.83-9.86,21.83-22s-6.66-22-21.83-22c-15.45,0-22,9.86-22,22S274.45,172.73,289.91,172.73Z"/><path class="cls-1" d="M378.72,115.24c26.77,0,37.95,16.38,37.95,30v5.46a5.4,5.4,0,0,1-5.38,5.42H358.88c2.53,8.79,11.2,16.65,24.1,16.65,11.06,0,18.67-4.53,22.77-6.54a2.64,2.64,0,0,1,2.93.54l5.86,5.72a2.58,2.58,0,0,1,.24,3.65,2.41,2.41,0,0,1-.37.34c-6.13,5.06-15.18,9.86-31.43,9.86-27.07,0-42.35-16-42.35-35.55S351.69,115.24,378.72,115.24Zm20.53,30c-.13-9.33-5.46-16.38-20.53-16.38-13.07,0-18.77,6.92-20.24,16.38Z"/><path class="cls-1" d="M435.18,153.28v-24.1H422.4a2.67,2.67,0,0,1-2.67-2.66V119.9a2.67,2.67,0,0,1,2.67-2.66c10.38,0,12.78-4.52,12.78-16.51a2.67,2.67,0,0,1,2.66-2.66h10.52a2.67,2.67,0,0,1,2.67,2.66V117.2h25.43a2.67,2.67,0,0,1,2.67,2.67v6.7a2.67,2.67,0,0,1-2.67,2.66H451V150.7c0,11.71,0,22.63,9.45,22.63,8.79,0,9.33-5.6,11.2-9.45a2.06,2.06,0,0,1,2.66-.93l6.53,2.8c1.74.79,1.6,2.39.94,4.38-2.13,6.54-5.46,16.25-21.31,16.25C435.58,186.31,435.18,171,435.18,153.28Z"/><path class="cls-1" d="M496,89.1h11.86a2.68,2.68,0,0,1,2.66,2.66v39.55c4.39-9,14.78-15.45,27.3-15.45,24.27,0,34.22,14.79,34.22,33v32.22a2.67,2.67,0,0,1-2.66,2.67H557.56a2.67,2.67,0,0,1-2.66-2.67V154.22c0-12.79-3.07-22.78-19.45-22.78s-24.9,10-24.9,22.78v26.89a2.67,2.67,0,0,1-2.66,2.67H496a2.68,2.68,0,0,1-2.63-2.67V91.76A2.67,2.67,0,0,1,496,89.1Z"/><path class="cls-1" d="M620.14,115.24c26.77,0,38,16.38,38,30v5.46a5.39,5.39,0,0,1-5.33,5.46H600.3c2.53,8.79,11.2,16.65,24.1,16.65,11.05,0,18.67-4.53,22.78-6.54a2.65,2.65,0,0,1,2.93.53l5.85,5.73a2.57,2.57,0,0,1,.25,3.63,2.6,2.6,0,0,1-.38.36c-6.12,5.06-15.18,9.86-31.43,9.86-27.07,0-42.34-16-42.34-35.56S593.11,115.24,620.14,115.24Zm20.54,30c-.14-9.33-5.46-16.38-20.54-16.38-13.06,0-18.78,6.92-20.24,16.38Z"/><path class="cls-1" d="M672.07,117.2h11.86a2.65,2.65,0,0,1,2.69,2.64v11.47c4.4-9,12.52-15.45,25-15.45,8,0,14.51,4.14,16.8,9.06a2.28,2.28,0,0,1-.14,1.86l-4.67,8.8c-1.32,2.39-3.73,2.39-5.72.26a14,14,0,0,0-10.12-4.4c-16.52,0-21.19,10-21.19,22.78v26.89a2.67,2.67,0,0,1-2.66,2.67H672.11a2.67,2.67,0,0,1-2.66-2.67V119.9A2.66,2.66,0,0,1,672.07,117.2Z"/></g></g></svg>