<svg id="Layer_1" data-name="Layer 1" xmlns="http://www.w3.org/2000/svg" viewBox="0 0 817.81 311.1"><defs><style>.cls-1{fill:#141e75;}</style></defs><g id="Layer_2" data-name="Layer 2"><g id="Layer_1-2" data-name="Layer 1-2"><path class="cls-1" d="M169.66,97.36l.13,10a2.73,2.73,0,0,1-2.65,2.8H138v71.08a2.67,2.67,0,0,1-2.66,2.67H123.76a2.67,2.67,0,0,1-2.66-2.67V110.29H91.88a2.67,2.67,0,0,1-2.66-2.68h0V97.49a2.67,2.67,0,0,1,2.66-2.67L167,94.68A2.67,2.67,0,0,1,169.66,97.36Z"/><path class="cls-1" d="M163.13,150.87c0-19.6,12.39-35.55,39.42-35.55s39.28,16,39.28,35.55-12.39,35.56-39.28,35.56S163.13,170.43,163.13,150.87Zm39.42,22c15.31,0,21.83-9.86,21.83-22s-6.65-22-21.83-22c-15.45,0-22,9.86-22,22S187.1,172.85,202.55,172.85Z"/><path class="cls-1" d="M255.54,200l4.14-4.93c.93-1.06,2.8-1.87,4.12.26,5.46,8.67,17.74,11,25,11,21,0,23.43-9,23.7-17.17V172.58c-3.34,11.32-18.24,13.85-27.44,13.85-24.1,0-34.62-16-34.62-35.56s13.19-35.51,36.49-35.51c9.18,0,22.77,4.66,25.57,14.24V120a2.67,2.67,0,0,1,2.66-2.66h11.85a2.67,2.67,0,0,1,2.66,2.66v69.24c0,20.53-16.24,32.62-40.47,32.62-14.94,0-28.63-5.19-35.3-18.51C253.28,201.86,254.62,201.23,255.54,200Zm34.37-27.15c15.31,0,21.83-9.86,21.83-22s-6.66-22-21.83-22c-15.45,0-22,9.86-22,22S274.45,172.85,289.91,172.85Z"/><path class="cls-1" d="M378.72,115.36c26.77,0,37.95,16.38,37.95,30v5.46a5.4,5.4,0,0,1-5.38,5.42H358.88c2.53,8.79,11.2,16.65,24.1,16.65,11.06,0,18.67-4.53,22.77-6.54a2.65,2.65,0,0,1,2.93.53l5.86,5.73a2.57,2.57,0,0,1,.24,3.64,2,2,0,0,1-.37.35c-6.13,5.06-15.18,9.86-31.43,9.86-27.07,0-42.35-16-42.35-35.56S351.69,115.36,378.72,115.36Zm20.53,30c-.13-9.34-5.46-16.38-20.53-16.38-13.07,0-18.77,6.92-20.24,16.38Z"/><path class="cls-1" d="M435.18,153.4V129.3H422.4a2.67,2.67,0,0,1-2.67-2.66V120a2.67,2.67,0,0,1,2.67-2.66c10.38,0,12.78-4.53,12.78-16.51a2.67,2.67,0,0,1,2.66-2.66h10.52a2.67,2.67,0,0,1,2.67,2.66v16.47h25.43a2.67,2.67,0,0,1,2.67,2.66v6.71a2.67,2.67,0,0,1-2.67,2.66H451v21.47c0,11.71,0,22.63,9.45,22.63,8.79,0,9.33-5.6,11.2-9.45a2.07,2.07,0,0,1,2.66-.94l6.53,2.8c1.74.8,1.6,2.39.94,4.39-2.13,6.54-5.46,16.25-21.31,16.25C435.58,186.43,435.18,171.11,435.18,153.4Z"/><path class="cls-1" d="M496,89.22h11.86a2.67,2.67,0,0,1,2.66,2.66v39.55c4.39-9.06,14.78-15.45,27.3-15.45,24.27,0,34.22,14.79,34.22,33v32.22a2.67,2.67,0,0,1-2.66,2.67H557.56a2.67,2.67,0,0,1-2.66-2.67V154.34c0-12.79-3.07-22.78-19.45-22.78s-24.9,10-24.9,22.78v26.89a2.67,2.67,0,0,1-2.66,2.67H496a2.68,2.68,0,0,1-2.63-2.67V91.88A2.67,2.67,0,0,1,496,89.22Z"/><path class="cls-1" d="M620.14,115.36c26.77,0,38,16.38,38,30v5.46a5.4,5.4,0,0,1-5.33,5.46H600.3c2.53,8.78,11.2,16.64,24.1,16.64,11.05,0,18.67-4.52,22.78-6.53a2.62,2.62,0,0,1,2.93.53L656,172.6a2.59,2.59,0,0,1-.13,4c-6.12,5.06-15.18,9.86-31.43,9.86-27.07,0-42.34-16-42.34-35.56S593.11,115.36,620.14,115.36Zm20.54,30c-.14-9.34-5.46-16.38-20.54-16.38-13.06,0-18.78,6.92-20.24,16.38Z"/><path class="cls-1" d="M672.07,117.32h11.86a2.65,2.65,0,0,1,2.69,2.64v11.47c4.4-9.06,12.52-15.45,25-15.45,8,0,14.51,4.14,16.8,9a2.3,2.3,0,0,1-.14,1.87l-4.67,8.79c-1.32,2.39-3.73,2.39-5.72.27a14,14,0,0,0-10.12-4.4c-16.52,0-21.19,10-21.19,22.78v26.89A2.67,2.67,0,0,1,684,183.9H672.11a2.67,2.67,0,0,1-2.66-2.67V120A2.66,2.66,0,0,1,672.07,117.32Z"/></g></g></svg>