<?xml version="1.0" encoding="utf-8"?>
<!-- Generator: Adobe Illustrator 26.0.0, SVG Export Plug-In . SVG Version: 6.00 Build 0)  -->
<svg version="1.1" id="Layer_1" xmlns="http://www.w3.org/2000/svg" xmlns:xlink="http://www.w3.org/1999/xlink" x="0px" y="0px"
	 viewBox="0 0 817.8 311.1" style="enable-background:new 0 0 817.8 311.1;" xml:space="preserve">
<style type="text/css">
	.st0{fill:#FFFFFF;}
</style>
<g id="Layer_2_00000076597105021636793960000005436744723092429974_">
	<g id="Layer_1-2_00000124868790769312346950000002898202835595081097_">
		<path class="st0" d="M169.7,97.4l0.1,10c0,1.5-1.1,2.8-2.6,2.8c-0.1,0-0.1,0-0.2,0h-29v71.1c0,1.5-1.2,2.7-2.7,2.7h-11.5
			c-1.5,0-2.7-1.2-2.7-2.7v-70.9H91.9c-1.5,0-2.7-1.2-2.7-2.7c0,0,0,0,0,0V97.5c0-1.5,1.2-2.7,2.7-2.7l75.1-0.1
			C168.5,94.7,169.7,95.9,169.7,97.4z"/>
		<path class="st0" d="M163.1,150.9c0-19.6,12.4-35.6,39.4-35.6c26.9,0,39.3,16,39.3,35.6s-12.4,35.6-39.3,35.6
			S163.1,170.4,163.1,150.9z M202.5,172.8c15.3,0,21.8-9.9,21.8-22s-6.7-22-21.8-22c-15.4,0-22,9.9-22,22S187.1,172.8,202.5,172.8z"
			/>
		<path class="st0" d="M255.5,200l4.1-4.9c0.9-1.1,2.8-1.9,4.1,0.3c5.5,8.7,17.7,11.1,25,11.1c21,0,23.4-9.1,23.7-17.2v-16.6
			c-3.3,11.3-18.2,13.9-27.4,13.9c-24.1,0-34.6-16-34.6-35.6s13.2-35.5,36.5-35.5c9.2,0,22.8,4.7,25.6,14.2V120
			c0-1.5,1.2-2.7,2.7-2.7h11.9c1.5,0,2.7,1.2,2.7,2.7v69.2c0,20.5-16.2,32.6-40.5,32.6c-14.9,0-28.6-5.2-35.3-18.5
			C253.3,201.9,254.6,201.2,255.5,200z M289.9,172.8c15.3,0,21.8-9.9,21.8-22c0-12.1-6.7-22-21.8-22c-15.4,0-22,9.9-22,22
			S274.5,172.8,289.9,172.8z"/>
		<path class="st0" d="M378.7,115.4c26.8,0,38,16.4,38,30v5.5c0,3-2.4,5.4-5.4,5.4c0,0,0,0,0,0h-52.4c2.5,8.8,11.2,16.6,24.1,16.6
			c11.1,0,18.7-4.5,22.8-6.5c1-0.4,2.2-0.2,2.9,0.5l5.9,5.7c1.1,0.9,1.2,2.6,0.2,3.6c-0.1,0.1-0.2,0.2-0.4,0.3
			c-6.1,5.1-15.2,9.9-31.4,9.9c-27.1,0-42.4-16-42.4-35.6S351.7,115.4,378.7,115.4z M399.3,145.3c-0.1-9.3-5.5-16.4-20.5-16.4
			c-13.1,0-18.8,6.9-20.2,16.4H399.3z"/>
		<path class="st0" d="M435.2,153.4v-24.1h-12.8c-1.5,0-2.7-1.2-2.7-2.7V120c0-1.5,1.2-2.7,2.7-2.7c10.4,0,12.8-4.5,12.8-16.5
			c0-1.5,1.2-2.7,2.7-2.7h10.5c1.5,0,2.7,1.2,2.7,2.7v16.5h25.4c1.5,0,2.7,1.2,2.7,2.7c0,0,0,0,0,0v6.7c0,1.5-1.2,2.7-2.7,2.7H451
			v21.5c0,11.7,0,22.6,9.4,22.6c8.8,0,9.3-5.6,11.2-9.5c0.5-1,1.7-1.4,2.7-0.9l6.5,2.8c1.7,0.8,1.6,2.4,0.9,4.4
			c-2.1,6.5-5.5,16.3-21.3,16.3C435.6,186.4,435.2,171.1,435.2,153.4z"/>
		<path class="st0" d="M496,89.2h11.9c1.5,0,2.7,1.2,2.7,2.7v39.6c4.4-9.1,14.8-15.4,27.3-15.4c24.3,0,34.2,14.8,34.2,33v32.2
			c0,1.5-1.2,2.7-2.7,2.7h-11.9c-1.5,0-2.7-1.2-2.7-2.7v-26.9c0-12.8-3.1-22.8-19.4-22.8c-16.4,0-24.9,10-24.9,22.8v26.9
			c0,1.5-1.2,2.7-2.7,2.7H496c-1.5,0-2.6-1.2-2.6-2.7V91.9C493.4,90.4,494.6,89.2,496,89.2z"/>
		<path class="st0" d="M620.1,115.4c26.8,0,37.9,16.4,37.9,30v5.5c0,3-2.3,5.4-5.3,5.5c0,0-0.1,0-0.1,0h-52.3
			c2.5,8.8,11.2,16.6,24.1,16.6c11.1,0,18.7-4.5,22.8-6.5c1-0.4,2.2-0.2,2.9,0.5l5.9,5.7c1.1,0.9,1.2,2.6,0.3,3.6
			c-0.1,0.1-0.2,0.3-0.4,0.4c-6.1,5.1-15.2,9.9-31.4,9.9c-27.1,0-42.3-16-42.3-35.6S593.1,115.4,620.1,115.4z M640.7,145.3
			c-0.1-9.3-5.5-16.4-20.5-16.4c-13.1,0-18.8,6.9-20.2,16.4H640.7z"/>
		<path class="st0" d="M672.1,117.3h11.9c1.5,0,2.7,1.2,2.7,2.6c0,0,0,0,0,0.1v11.4c4.4-9.1,12.5-15.4,25-15.4
			c8,0,14.5,4.1,16.8,9.1c0.2,0.6,0.2,1.3-0.1,1.9l-4.7,8.8c-1.3,2.4-3.7,2.4-5.7,0.3c-2.6-2.8-6.3-4.4-10.1-4.4
			c-16.5,0-21.2,10-21.2,22.8v26.9c0,1.5-1.2,2.7-2.7,2.7h-11.9c-1.5,0-2.7-1.2-2.7-2.7V120C669.4,118.6,670.6,117.3,672.1,117.3z"
			/>
	</g>
</g>
</svg>
