<?xml version="1.0" encoding="utf-8"?>
<!-- Generator: Adobe Illustrator 26.0.0, SVG Export Plug-In . SVG Version: 6.00 Build 0)  -->
<svg version="1.1" id="Layer_1" xmlns="http://www.w3.org/2000/svg" xmlns:xlink="http://www.w3.org/1999/xlink" x="0px" y="0px"
	 viewBox="0 0 563 556" style="enable-background:new 0 0 563 556;" xml:space="preserve">
<style type="text/css">
	.st0{fill:#A0A0F2;}
	.st1{fill:#141E75;}
</style>
<g>
	<rect x="226.1" y="191.8" class="st0" width="110.9" height="59.9"/>
	<g>
		<path class="st1" d="M226.1,397.7V251.6h110.9v146.1c0,9.7-7.9,17.6-17.6,17.6h-75.7C233.9,415.3,226.1,407.4,226.1,397.7z"/>
		<path class="st1" d="M140.7,158.3V234c0,9.7,7.9,17.6,17.6,17.6h67.8l0,0c0-30.6,24.8-55.4,55.4-55.4h0
			c30.6,0,55.4,24.8,55.4,55.4l0,0h67.8c9.7,0,17.6-7.9,17.6-17.6v-75.7c0-9.7-7.9-17.6-17.6-17.6H158.3
			C148.6,140.7,140.7,148.6,140.7,158.3z"/>
	</g>
</g>
</svg>
