<svg id="Layer_1" data-name="Layer 1" xmlns="http://www.w3.org/2000/svg" viewBox="0 0 562.97 556.04"><defs><style>.cls-1{fill:#2a2c6f;}.cls-2{fill:#fff;}</style></defs><rect class="cls-1" x="226.05" y="191.76" width="110.86" height="59.85"/><path class="cls-2" d="M199.64,278H345.77a17.56,17.56,0,0,1,17.56,17.56v75.74a17.56,17.56,0,0,1-17.56,17.56H199.64a0,0,0,0,1,0,0V278A0,0,0,0,1,199.64,278Z" transform="translate(614.94 51.97) rotate(90)"/><path class="cls-2" d="M140.74,158.3v75.75a17.56,17.56,0,0,0,17.56,17.56h67.75a55.44,55.44,0,0,1,55.44-55.44h0a55.44,55.44,0,0,1,55.43,55.44h67.75a17.56,17.56,0,0,0,17.56-17.56V158.3a17.56,17.56,0,0,0-17.56-17.56H158.3A17.56,17.56,0,0,0,140.74,158.3Z"/></svg>