<svg xmlns="http://www.w3.org/2000/svg" viewBox="0 0 70.01 79.77"><defs><style>.cls-1{fill:#454073;}.cls-2{fill:#7d7ae5;}</style></defs><g id="Layer_2" data-name="Layer 2"><g id="Layer_1-2" data-name="Layer 1"><path class="cls-1" d="M63,79.77H7a7,7,0,0,1-7-7v-60a7,7,0,0,1,7-7h8.57v4H7a3,3,0,0,0-3,3v60a3,3,0,0,0,3,3H63a3,3,0,0,0,3-3v-60a3,3,0,0,0-3-3H54.44v-4H63a7,7,0,0,1,7,7v60A7,7,0,0,1,63,79.77Z"/><path class="cls-1" d="M52.44,15.51H17.57a4,4,0,0,1-4-4V4a4,4,0,0,1,4-4H52.44a4,4,0,0,1,4,4v7.51A4,4,0,0,1,52.44,15.51ZM17.57,4v7.51H52.45V4Z"/><path class="cls-2" d="M34.68,64.75A21.77,21.77,0,1,1,56.44,43,21.79,21.79,0,0,1,34.68,64.75Zm0-39.53A17.77,17.77,0,1,0,52.44,43,17.79,17.79,0,0,0,34.68,25.22Z"/><path class="cls-2" d="M34.45,53.15A4,4,0,0,1,31.64,52L23.79,44.3l2.8-2.86,7.85,7.71,8.46-17,3.58,1.78L38,50.93a4,4,0,0,1-2.91,2.17A4.89,4.89,0,0,1,34.45,53.15Z"/></g></g></svg>