<svg xmlns="http://www.w3.org/2000/svg" viewBox="0 0 109.99 95.68"><defs><style>.cls-1{fill:#7d7ae5;}.cls-2{fill:#454073;}</style></defs><g id="Layer_2" data-name="Layer 2"><g id="Layer_1-2" data-name="Layer 1"><path class="cls-1" d="M71.08,47.4H56.19V37.22H46V22.32H56.19V12.14H71.08V22.32H81.26v14.9H71.08Zm-10.89-4h6.89V33.22H77.26v-6.9H67.08V16.14H60.19V26.32H50v6.9H60.19Z"/><path class="cls-1" d="M65.06,59.5l-.18-4a25.79,25.79,0,1,0-19.89-8l.55.58v.8h-2v2l-1-1-.42.4a29.76,29.76,0,1,1,23,9.2Z"/><path class="cls-2" d="M52.52,95.68,11.73,87H7a7,7,0,0,1-7-7V56.19c0-3.08,5.46-3.08,8.09-3.08,2.25,0,5.17-2.3,8-4.53,3.68-2.9,7.49-5.9,11.77-5.9,3.65,0,7.78,1.43,12.16,3s8.82,3.08,12.33,2.9c7-.34,14-.38,16,3.13.65,1.09,1.07,3-.56,5.6-2.67,4.31-10.15,5.48-16,5.7l9.37,5.68L80.6,64.41l10.64-8.3.25-.1h0s2-1.06,5.78-6c3.44-4.45,7.82-4.86,10.43-3.36a4.2,4.2,0,0,1,2,5.33l-.07.15c-.28.56-7,13.92-16.71,24.13C83,86.66,54.22,95.19,53,95.54ZM4,57.39V80a3,3,0,0,0,3,3l5.35,0,40,8.5c3.81-1.16,29.17-9.12,37.64-18,8.86-9.32,15.36-21.83,16-23.06,0-.08,0-.17-.27-.32-.93-.54-3.18-.37-5.28,2.34-3.86,5-6.22,6.59-7.09,7.06l-11,8.58L60.43,72.89,35.88,58l8.62.79c6.46.59,17.57.12,19.89-3.64.54-.86.59-1.36.53-1.46-.38-.64-2.49-1.65-12.38-1.16-4.26.22-9.13-1.48-13.84-3.12-4.05-1.4-7.88-2.73-10.85-2.73s-6.15,2.56-9.29,5c-3.51,2.77-6.83,5.39-10.47,5.39A22,22,0,0,0,4,57.39Z"/></g></g></svg>