<svg xmlns="http://www.w3.org/2000/svg" viewBox="0 0 86.5 70.07"><defs><style>.cls-1{fill:#7d7ae5;}.cls-2{fill:#454073;}</style></defs><g id="Layer_2" data-name="Layer 2"><g id="Layer_1-2" data-name="Layer 1"><path class="cls-1" d="M19.23,27.56a6.27,6.27,0,1,1,6.26-6.27A6.28,6.28,0,0,1,19.23,27.56Zm0-8.53a2.27,2.27,0,1,0,2.26,2.26A2.27,2.27,0,0,0,19.23,19Z"/><path class="cls-1" d="M19.21,42.65c-3.94,0-9.9,0-9.9-6.46,0-5.22,4.16-9,9.9-9s9.89,3.8,9.89,9C29.1,42.65,23.15,42.65,19.21,42.65Zm0-11.48c-2.94,0-5.9,1.56-5.9,5,0,2,.58,2.46,5.9,2.46s5.89-.49,5.89-2.46C25.1,32.73,22.14,31.17,19.21,31.17Z"/><path class="cls-1" d="M43.61,27.56a6.27,6.27,0,1,1,6.27-6.27A6.28,6.28,0,0,1,43.61,27.56Zm0-8.53a2.27,2.27,0,1,0,2.27,2.26A2.26,2.26,0,0,0,43.61,19Z"/><path class="cls-1" d="M43.59,42.65c-3.94,0-9.89,0-9.89-6.46,0-5.22,4.16-9,9.89-9s9.9,3.8,9.9,9C53.49,42.65,47.53,42.65,43.59,42.65Zm0-11.48c-2.93,0-5.89,1.56-5.89,5,0,2,.58,2.46,5.89,2.46s5.9-.49,5.9-2.46C49.49,32.73,46.53,31.17,43.59,31.17Z"/><path class="cls-1" d="M68,27.56a6.27,6.27,0,1,1,6.26-6.27A6.28,6.28,0,0,1,68,27.56ZM68,19a2.27,2.27,0,1,0,2.26,2.26A2.27,2.27,0,0,0,68,19Z"/><path class="cls-1" d="M68,42.65c-3.94,0-9.9,0-9.9-6.46,0-5.22,4.17-9,9.9-9s9.89,3.8,9.89,9C77.87,42.65,71.92,42.65,68,42.65Zm0-11.48c-2.94,0-5.9,1.56-5.9,5,0,2,.58,2.46,5.9,2.46s5.89-.49,5.89-2.46C73.87,32.73,70.91,31.17,68,31.17Z"/><path class="cls-2" d="M80.4,57.68H6.1A6.11,6.11,0,0,1,0,51.58V6.1A6.11,6.11,0,0,1,6.1,0H80.4a6.11,6.11,0,0,1,6.1,6.1V51.58A6.11,6.11,0,0,1,80.4,57.68ZM6.1,4A2.1,2.1,0,0,0,4,6.1V51.58a2.1,2.1,0,0,0,2.1,2.1H80.4a2.11,2.11,0,0,0,2.1-2.1V6.1A2.11,2.11,0,0,0,80.4,4Z"/><path class="cls-2" d="M57.78,69.63H28.72V53.68H57.78Zm-25.06-4H53.78V57.68H32.72Z"/><path class="cls-2" d="M67.19,70.07c-7.87,0-16.41,0-24.77-.1-14.39-.09-28-.17-35.85,0l-.11-4c8-.2,21.57-.12,36,0,13.47.08,27.4.17,38.2,0l0,4C76.58,70.05,72,70.07,67.19,70.07Z"/></g></g></svg>