<svg xmlns="http://www.w3.org/2000/svg" viewBox="0 0 93.75 65.48"><defs><style>.cls-1{fill:#7d7ae5;}.cls-2{fill:#454073;}</style></defs><g id="Layer_2" data-name="Layer 2"><g id="Layer_1-2" data-name="Layer 1"><path class="cls-1" d="M47.79,24.18A12.09,12.09,0,1,1,59.88,12.09,12.11,12.11,0,0,1,47.79,24.18ZM47.79,4a8.09,8.09,0,1,0,8.09,8.09A8.1,8.1,0,0,0,47.79,4Z"/><path class="cls-2" d="M73.12,29.76A12.09,12.09,0,1,1,85.21,17.68,12.1,12.1,0,0,1,73.12,29.76Zm0-20.17a8.09,8.09,0,1,0,8.09,8.09A8.1,8.1,0,0,0,73.12,9.59Z"/><path class="cls-2" d="M73.08,65.48c-8.26,0-16.8,0-19.72-7l3.7-1.54c1.76,4.25,7.48,4.57,16,4.57,11.59,0,16.67-.81,16.67-8.55,0-8.6-6.86-14.6-16.67-14.6a20,20,0,0,0-8.46,1.77l-1.7-3.62a24,24,0,0,1,10.16-2.15c12,0,20.67,7.82,20.67,18.6C93.75,65.48,82.76,65.48,73.08,65.48Z"/><path class="cls-2" d="M20.72,29.76A12.09,12.09,0,1,1,32.81,17.68,12.09,12.09,0,0,1,20.72,29.76Zm0-20.17a8.09,8.09,0,1,0,8.09,8.09A8.09,8.09,0,0,0,20.72,9.59Z"/><path class="cls-2" d="M20.68,65.48C11,65.48,0,65.48,0,52.93c0-10.78,8.7-18.6,20.68-18.6a23.55,23.55,0,0,1,11.61,2.89l-2,3.48a19.52,19.52,0,0,0-9.63-2.37c-9.82,0-16.68,6-16.68,14.6,0,7.74,5.08,8.55,16.68,8.55,8.6,0,14.37-.33,16.07-4.71l3.73,1.44C37.66,65.48,29,65.48,20.68,65.48Z"/><path class="cls-1" d="M47.75,59.89c-9.7,0-20.68,0-20.68-12.55,0-10.78,8.69-18.6,20.68-18.6s20.67,7.82,20.67,18.6C68.42,59.89,57.44,59.89,47.75,59.89Zm0-27.15c-9.82,0-16.68,6-16.68,14.6,0,7.74,5.08,8.55,16.68,8.55s16.67-.81,16.67-8.55C64.42,38.74,57.56,32.74,47.75,32.74Z"/></g></g></svg>