<svg xmlns="http://www.w3.org/2000/svg" viewBox="0 0 104.66 80.59"><defs><style>.cls-1{fill:#454073;}.cls-2{fill:#7d7ae5;}</style></defs><g id="Layer_2" data-name="Layer 2"><g id="Layer_1-2" data-name="Layer 1"><path class="cls-1" d="M92.83,62a4.07,4.07,0,0,1-1-.14L29.87,44.3,38,7.06a8.59,8.59,0,0,1,7.16-7l.19,0L94.94.29a8.48,8.48,0,0,1,7.19,2.45,8.5,8.5,0,0,1,2.42,7.4l-8,48.62a3.8,3.8,0,0,1-1.71,2.61A3.74,3.74,0,0,1,92.83,62Zm-1.09-4v0ZM35.66,40.83,91.94,56.76,99.7,9.36a3.68,3.68,0,0,0-4.21-4.18l-.2,0L45.7,4.92a3.67,3.67,0,0,0-2.9,3l0,.12Z"/><path class="cls-1" d="M55.61,80.59a8.56,8.56,0,0,1-3.55-.77L2.89,57.72a4.92,4.92,0,0,1,.65-9.2L32.75,40l63.4,18,.44.8-.49,2.42L59.26,79.79A8.75,8.75,0,0,1,55.61,80.59ZM32.77,45.12,4.91,53.24l49.17,22.1a3.7,3.7,0,0,0,3.07,0l30-14.84Z"/><path class="cls-2" d="M84.24,49.34A5.17,5.17,0,0,1,83,49.19l-39.51-10a4.9,4.9,0,0,1-3.57-5.78l4.29-19.59A4.91,4.91,0,0,1,48.35,10l.2,0h.22L89,11.18a4.91,4.91,0,0,1,5.3,5.63L89.09,45.24a4.91,4.91,0,0,1-4.85,4.1ZM44.73,34.43l39.5,10L89.49,16l-.43.1L49,14.85Z"/></g></g></svg>