<svg xmlns="http://www.w3.org/2000/svg" viewBox="0 0 92.39 61.83"><defs><style>.cls-1{fill:#454073;}.cls-2{fill:#7d7ae5;}</style></defs><g id="Layer_2" data-name="Layer 2"><g id="Layer_1-2" data-name="Layer 1"><path class="cls-1" d="M88,50.72H4.2V7.57A7.58,7.58,0,0,1,11.77,0H80.42A7.58,7.58,0,0,1,88,7.57Zm-79.79-4H84V7.57A3.57,3.57,0,0,0,80.42,4H11.77A3.57,3.57,0,0,0,8.2,7.57Z"/><path class="cls-1" d="M86.68,61.83h-81A5.71,5.71,0,0,1,1,52.94l3.57-5.33,3.32,2.22L4.29,55.17a1.71,1.71,0,0,0,1.42,2.66h81a1.72,1.72,0,0,0,1.39-2.7l-3.71-5.26,3.27-2.3,3.71,5.25a5.71,5.71,0,0,1-4.66,9Z"/><path class="cls-2" d="M72.66,43.35H19.54a7.12,7.12,0,0,1-7.12-7.12v-21a7.13,7.13,0,0,1,7.12-7.12H72.66a7.14,7.14,0,0,1,7.12,7.12v21A7.13,7.13,0,0,1,72.66,43.35ZM19.54,12.09a3.12,3.12,0,0,0-3.12,3.12v21a3.12,3.12,0,0,0,3.12,3.12H72.66a3.12,3.12,0,0,0,3.12-3.12v-21a3.12,3.12,0,0,0-3.12-3.12Z"/></g></g></svg>