<svg xmlns="http://www.w3.org/2000/svg" viewBox="0 0 51.58 98.95"><defs><style>.cls-1{fill:#7d7ae5;}.cls-2{fill:#454073;}</style></defs><g id="Layer_2" data-name="Layer 2"><g id="Layer_1-2" data-name="Layer 1"><rect class="cls-1" x="24.08" y="40.54" width="4" height="11.16"/><path class="cls-2" d="M3.28,60.55.72,57.49l9.45-7.92a14.57,14.57,0,0,0,5.23-11.2v-13h4v13a18.59,18.59,0,0,1-6.66,14.27Z"/><path class="cls-2" d="M48.88,60.55l-9.46-7.91a18.59,18.59,0,0,1-6.66-14.27v-13h4v13A14.57,14.57,0,0,0,42,49.57l9.46,7.92Z"/><path class="cls-2" d="M25.79,99A25.82,25.82,0,0,1,0,73.16V47.59a25.79,25.79,0,0,1,51.58,0V73.16A25.82,25.82,0,0,1,25.79,99Zm0-73.15A21.82,21.82,0,0,0,4,47.59V73.16a21.79,21.79,0,1,0,43.58,0V47.59A21.82,21.82,0,0,0,25.79,25.8Z"/><path class="cls-2" d="M27.79,23.8h-4c0-11.22-1.46-11.83-6.54-12.21a8,8,0,0,1-5.7-2.82C8.82,5.44,9.32.55,9.39,0l4,.48c-.12,1-.11,4.06,1.29,5.76a4,4,0,0,0,2.9,1.36C26.78,8.29,27.79,13.31,27.79,23.8Z"/></g></g></svg>