<svg xmlns="http://www.w3.org/2000/svg" viewBox="0 0 82.02 89.32"><defs><style>.cls-1{fill:#454073;}.cls-2{fill:#7d7ae5;}</style></defs><g id="Layer_2" data-name="Layer 2"><g id="Layer_1-2" data-name="Layer 1"><path class="cls-1" d="M41,89.32A3.93,3.93,0,0,1,39.42,89C-10.34,66.29.1,24.21,2.69,16a4,4,0,0,1,4.63-2.7C25.08,17,34.64,6.37,37.93,1.61a3.72,3.72,0,0,1,6.13,0C47.36,6.4,57,17.12,74.89,13.25a3.7,3.7,0,0,1,4.32,2.49C81.87,24,92.6,66.16,42.56,89h0A3.89,3.89,0,0,1,41,89.32ZM6.5,17.21A57,57,0,0,0,5.35,46.52C9.31,63.25,21.3,76.3,41,85.3c8.42-3.86,48.33-24.75,34.49-68.09C55.77,21.36,44.94,9.78,41,4.21,37.05,9.77,26.22,21.36,6.5,17.21Z"/><path class="cls-2" d="M50.74,69.65h-20v-15h-15v-20h15v-15h20v15h15v20h-15Zm-16-4h12v-15h15v-12h-15v-15h-12v15h-15v12h15Z"/></g></g></svg>