<svg xmlns="http://www.w3.org/2000/svg" viewBox="0 0 70.77 78.78"><defs><style>.cls-1{fill:#454073;}.cls-2{fill:#7d7ae5;}</style></defs><g id="Layer_2" data-name="Layer 2"><g id="Layer_1-2" data-name="Layer 1"><path class="cls-1" d="M63.13,78.78H7.64A7.65,7.65,0,0,1,0,71.14v-44a7.64,7.64,0,0,1,3.22-6.23L30.94,1.29a7,7,0,0,1,8-.05l28.5,19.69a7.64,7.64,0,0,1,3.3,6.29V71.14A7.65,7.65,0,0,1,63.13,78.78ZM35,4a3,3,0,0,0-1.73.55L5.53,24.21a3.64,3.64,0,0,0-1.53,3v44a3.64,3.64,0,0,0,3.64,3.64H63.13a3.64,3.64,0,0,0,3.64-3.64V27.22a3.62,3.62,0,0,0-1.57-3L36.7,4.53A3,3,0,0,0,35,4Z"/><path class="cls-2" d="M43.67,64.26H27.27V52.66H15.67V36.25h11.6V24.65h16.4v11.6h11.6V52.66H43.67Zm-12.4-4h8.4V48.66h11.6V40.25H39.67V28.65h-8.4v11.6H19.67v8.41h11.6Z"/></g></g></svg>