<svg xmlns="http://www.w3.org/2000/svg" viewBox="0 0 94.31 94.31"><defs><style>.cls-1{fill:#7d7ae5;}.cls-2{fill:#454073;}</style></defs><g id="Layer_2" data-name="Layer 2"><g id="Layer_1-2" data-name="Layer 1"><path class="cls-1" d="M36.08,62.18a26.1,26.1,0,1,1,18.46-7.64A26,26,0,0,1,36.08,62.18Zm0-48.2a22.1,22.1,0,1,0,15.63,6.46A22.05,22.05,0,0,0,36.08,14Z"/><path class="cls-2" d="M84.67,94.31,56.33,66A36.09,36.09,0,1,1,66,56.33L94.31,84.67ZM56.73,60.71,84.67,88.65l4-4L60.72,56.73l1-1.39a32.07,32.07,0,1,0-6.41,6.42Z"/></g></g></svg>