<svg xmlns="http://www.w3.org/2000/svg" viewBox="0 0 99.4 72.28"><defs><style>.cls-1{fill:#7d7ae5;}.cls-2{fill:#454073;}</style></defs><g id="Layer_2" data-name="Layer 2"><g id="Layer_1-2" data-name="Layer 1"><path class="cls-1" d="M49.69,72.28a10.2,10.2,0,0,1-.08-20.4h.09A10.19,10.19,0,0,1,59.89,62h0A10.2,10.2,0,0,1,49.78,72.28Zm0-16.4h-.06a6.2,6.2,0,0,0,.06,12.4h0A6.2,6.2,0,0,0,55.89,62h0a6.2,6.2,0,0,0-6.19-6.15Z"/><path class="cls-2" d="M96.57,23.41a66.29,66.29,0,0,0-93.74,0L0,20.59a70.28,70.28,0,0,1,99.4,0Z"/><path class="cls-2" d="M85.12,34.86a50.09,50.09,0,0,0-70.84,0L11.45,32A54.08,54.08,0,0,1,88,32Z"/><path class="cls-2" d="M26.44,47,23.61,44.2a36.88,36.88,0,0,1,52.18,0L73,47a32.89,32.89,0,0,0-46.52,0Z"/></g></g></svg>