<svg xmlns="http://www.w3.org/2000/svg" viewBox="0 0 74.89 92.29"><defs><style>.cls-1{fill:#454073;}.cls-2{fill:#7d7ae5;}</style></defs><g id="Layer_2" data-name="Layer 2"><g id="Layer_1-2" data-name="Layer 1"><path class="cls-1" d="M29.08,33.19A16.6,16.6,0,1,1,45.68,16.6,16.61,16.61,0,0,1,29.08,33.19ZM29.08,4a12.6,12.6,0,1,0,12.6,12.6A12.61,12.61,0,0,0,29.08,4Z"/><path class="cls-1" d="M29,79.67c-14.27,0-29,0-29-17.27,0-15.32,11.93-26,29-26,11.71,0,21.48,5.22,26.14,14l-3.54,1.88C47.68,44.81,39.23,40.38,29,40.38c-14.73,0-25,9-25,22,0,12,8,13.27,25,13.27,1.83,0,4,0,6.05-.06l.1,4C33.06,79.66,30.88,79.67,29,79.67Z"/><path class="cls-2" d="M53.39,92.29a21.5,21.5,0,1,1,21.5-21.5A21.52,21.52,0,0,1,53.39,92.29Zm0-39a17.5,17.5,0,1,0,17.5,17.5A17.53,17.53,0,0,0,53.39,53.29Z"/><rect class="cls-2" x="51.39" y="61.04" width="4" height="19.5"/><rect class="cls-2" x="43.64" y="68.79" width="19.5" height="4"/></g></g></svg>