<svg xmlns="http://www.w3.org/2000/svg" viewBox="0 0 85.08 90.68"><defs><style>.cls-1{fill:#7d7ae5;}.cls-2{fill:#454073;}</style></defs><g id="Layer_2" data-name="Layer 2"><g id="Layer_1-2" data-name="Layer 1"><path class="cls-1" d="M31.45,59.67,20.17,55.45l4.36-11.66L35.81,48ZM25.31,53.1l3.8,1.42,1.56-4.17-3.8-1.41Z"/><path class="cls-1" d="M48.41,16,37.13,11.81,41.54,0,52.83,4.22ZM42.27,9.46l3.8,1.42,1.61-4.31L43.89,5.15Z"/><polygon class="cls-2" points="37.52 52.31 20.42 45.91 34.97 6.99 52.07 13.38 49.52 20.22 45.77 18.82 46.93 15.73 37.32 12.13 25.57 43.57 35.17 47.16 38.96 37.01 42.7 38.41 37.52 52.31"/><path class="cls-2" d="M65,59.83l-3.29-2.27a13.93,13.93,0,0,0-8.18-21.35l.95-3.88A17.92,17.92,0,0,1,65,59.83Z"/><polygon points="48.68 81.09 48.67 81.09 48.67 77.09 48.68 81.09"/><polygon points="37.96 25 37.95 25 37.95 21 37.96 25"/><path class="cls-2" d="M68.09,75.53l-2.28-3.29A27.39,27.39,0,0,0,50.2,22.33H50v-4h.21a31.4,31.4,0,0,1,17.89,57.2Z"/><path class="cls-2" d="M85.08,90.68H0v-2a9,9,0,0,1,9-9H44a3.58,3.58,0,0,0,3.31-5L45.6,70.8a12.31,12.31,0,0,1,.93-11.26A11.51,11.51,0,0,1,55.75,54c.3,0,.62,0,.93,0A12.72,12.72,0,0,1,69,66.84v7.55a5.33,5.33,0,0,0,5.32,5.32h1.84a9,9,0,0,1,9,9Zm-80.66-4H80.67a5,5,0,0,0-4.56-3H74.27A9.33,9.33,0,0,1,65,74.39V66.84A8.71,8.71,0,0,0,56.62,58c-.22,0-.43,0-.64,0a7.59,7.59,0,0,0-6.06,3.64,8.3,8.3,0,0,0-.63,7.59l1.66,4a7.58,7.58,0,0,1-7,10.51H9A5,5,0,0,0,4.42,86.68Z"/><path class="cls-2" d="M31.76,83.23H15.06V68.33L31.76,72Zm-12.7-4h8.7v-4l-8.7-1.89Z"/><path class="cls-1" d="M45.63,41A11.83,11.83,0,1,1,57.45,29.14,11.84,11.84,0,0,1,45.63,41Zm0-19.65a7.83,7.83,0,1,0,7.82,7.83A7.84,7.84,0,0,0,45.63,21.31Z"/></g></g></svg>