<svg xmlns="http://www.w3.org/2000/svg" viewBox="0 0 86.5 70.07"><defs><style>.cls-1{fill:#454073;}.cls-2{fill:#7d7ae5;}</style></defs><g id="Layer_2" data-name="Layer 2"><g id="Layer_1-2" data-name="Layer 1"><path class="cls-1" d="M80.4,57.68H6.1A6.11,6.11,0,0,1,0,51.58V6.1A6.11,6.11,0,0,1,6.1,0H80.4a6.11,6.11,0,0,1,6.1,6.1V51.58A6.11,6.11,0,0,1,80.4,57.68ZM6.1,4A2.1,2.1,0,0,0,4,6.1V51.58a2.1,2.1,0,0,0,2.1,2.1H80.4a2.11,2.11,0,0,0,2.1-2.1V6.1A2.11,2.11,0,0,0,80.4,4Z"/><path class="cls-2" d="M72.82,49H13.68a5,5,0,0,1-5-5V13.67a5,5,0,0,1,5-5H72.82a5,5,0,0,1,5,5V44A5,5,0,0,1,72.82,49ZM13.68,12.68a1,1,0,0,0-1,1V44a1,1,0,0,0,1,1H72.82a1,1,0,0,0,1-1V13.67a1,1,0,0,0-1-1Z"/><path class="cls-1" d="M57.78,69.63H28.72V53.68H57.78Zm-25.06-4H53.78V57.68H32.72Z"/><path class="cls-1" d="M67.19,70.07c-7.87,0-16.41,0-24.77-.1-14.39-.09-28-.17-35.85,0l-.11-4c8-.2,21.57-.12,36,0,13.47.08,27.4.17,38.2,0l0,4C76.58,70.05,72,70.07,67.19,70.07Z"/></g></g></svg>