<?xml version="1.0" encoding="utf-8"?>
<!-- Generator: Adobe Illustrator 26.0.0, SVG Export Plug-In . SVG Version: 6.00 Build 0)  -->
<svg version="1.1" id="Layer_1" xmlns="http://www.w3.org/2000/svg" xmlns:xlink="http://www.w3.org/1999/xlink" x="0px" y="0px"
	 viewBox="0 0 817.8 319.7" style="enable-background:new 0 0 817.8 319.7;" xml:space="preserve">
<style type="text/css">
	.st0{fill:#FFFFFF;}
</style>
<g id="Layer_2_00000076597105021636793960000005436744723092429974_">
	<g id="Layer_1-2_00000124868790769312346950000002898202835595081097_">
		<path class="st0" d="M359.2,230.9c-3.6,0.1-7-1.1-9.7-3.5l2.9-3.9c1.7,1.7,4.1,2.8,6.5,2.9c2.3,0,3.1-1,3.1-2.2
			c0-1.2-1-1.7-2.9-2.1l-2.8-0.7c-2.7-0.6-5.9-2.1-5.9-6.4c0-3.2,2.7-6.5,8.1-6.5c3.2,0,6.3,1.1,8.7,3.2l-2.9,3.9
			c-1.7-1.5-3.8-2.4-6-2.5c-2.1,0-2.5,1-2.5,1.7c0,1.1,0.9,1.6,2.6,2l3,0.7c3.8,0.9,6,2.8,6,6.2
			C367.6,227.7,364.7,230.9,359.2,230.9z"/>
		<path class="st0" d="M393.9,209v4.5h-9.7v3.9h8.7v4.2h-8.7v4.6h10v4.5h-15.4V209H393.9z"/>
		<path class="st0" d="M411.3,209l8,12.3V209h5.1v21.5h-4.9l-8.7-13.5v13.5h-5.2V209H411.3z"/>
		<path class="st0" d="M442.1,209v21.5h-5.4V209H442.1z"/>
		<path class="st0" d="M453.3,219.8c0-6.1,4.1-11.1,11.1-11.1c7,0,11.1,5,11.1,11.1c0,6.1-4.1,11.1-11.1,11.1
			S453.3,225.9,453.3,219.8z M470.1,219.8c0-3.6-2.2-6.6-5.6-6.6s-5.6,3-5.6,6.6c0,3.6,2.1,6.6,5.6,6.6S470.1,223.4,470.1,219.8z"/>
		<path class="st0" d="M497.6,209c4.7,0,7.8,3.1,7.8,6.8c0.1,3.1-1.8,5.8-4.7,6.9l4.6,7.8h-6.1l-4.2-7.2h-3v7.2h-5.4V209H497.6z
			 M492.2,213.2v5.9h4.3c2.1,0,3.5-1.2,3.5-3.2c0-1.8-1.4-2.7-3.5-2.7L492.2,213.2z"/>
		<path class="st0" d="M536.8,209v8.2h8V209h5.4v21.5h-5.4v-8.9h-8v8.9h-5.4V209H536.8z"/>
		<path class="st0" d="M577.6,209v4.5h-9.7v3.9h8.7v4.2h-8.7v4.6h10v4.5h-15.4V209H577.6z"/>
		<path class="st0" d="M587.3,230.5l7.8-21.5h6.1l7.9,21.5h-5.7l-1.2-3.4h-8.3l-1.1,3.4H587.3z M600.7,222.8l-2.7-8.1l-2.7,8.1
			H600.7z"/>
		<path class="st0" d="M624.6,209v17.1h8.5v4.5h-13.9V209H624.6z"/>
		<path class="st0" d="M656.5,209v4.5h-6v17.1h-5.4v-17.1H639V209H656.5z"/>
		<path class="st0" d="M672.5,209v8.2h8V209h5.4v21.5h-5.4v-8.9h-8v8.9h-5.4V209H672.5z"/>
		<path class="st0" d="M169.7,97.2l0.1,10c0,1.5-1.1,2.8-2.6,2.8c-0.1,0-0.1,0-0.2,0h-29v71.1c0,1.5-1.2,2.7-2.7,2.7h-11.5
			c-1.5,0-2.7-1.2-2.7-2.7v-70.9H91.9c-1.5,0-2.7-1.2-2.7-2.7c0,0,0,0,0,0V97.4c0-1.5,1.2-2.7,2.7-2.7l75.1-0.1
			C168.5,94.6,169.7,95.8,169.7,97.2z"/>
		<path class="st0" d="M163.1,150.8c0-19.6,12.4-35.6,39.4-35.6c26.9,0,39.3,16,39.3,35.6s-12.4,35.6-39.3,35.6
			S163.1,170.3,163.1,150.8z M202.5,172.7c15.3,0,21.8-9.9,21.8-22c0-12.1-6.7-22-21.8-22c-15.4,0-22,9.9-22,22
			C180.6,162.9,187.1,172.7,202.5,172.7z"/>
		<path class="st0" d="M255.5,199.9l4.1-4.9c0.9-1.1,2.8-1.9,4.1,0.3c5.5,8.7,17.7,11.1,25,11.1c21,0,23.4-9.1,23.7-17.2v-16.6
			c-3.3,11.3-18.2,13.9-27.4,13.9c-24.1,0-34.6-16-34.6-35.6s13.2-35.5,36.5-35.5c9.2,0,22.8,4.7,25.6,14.2v-9.6
			c0-1.5,1.2-2.7,2.7-2.7h11.9c1.5,0,2.7,1.2,2.7,2.7v69.2c0,20.5-16.2,32.6-40.5,32.6c-14.9,0-28.6-5.2-35.3-18.5
			C253.3,201.7,254.6,201.1,255.5,199.9z M289.9,172.7c15.3,0,21.8-9.9,21.8-22s-6.7-22-21.8-22c-15.4,0-22,9.9-22,22
			C267.9,162.9,274.5,172.7,289.9,172.7z"/>
		<path class="st0" d="M378.7,115.2c26.8,0,38,16.4,38,30v5.5c0,3-2.4,5.4-5.4,5.4c0,0,0,0,0,0h-52.4c2.5,8.8,11.2,16.6,24.1,16.6
			c11.1,0,18.7-4.5,22.8-6.5c1-0.4,2.2-0.2,2.9,0.5l5.9,5.7c1.1,0.9,1.2,2.6,0.2,3.6c-0.1,0.1-0.2,0.2-0.4,0.3
			c-6.1,5.1-15.2,9.9-31.4,9.9c-27.1,0-42.4-16-42.4-35.6S351.7,115.2,378.7,115.2z M399.3,145.2c-0.1-9.3-5.5-16.4-20.5-16.4
			c-13.1,0-18.8,6.9-20.2,16.4H399.3z"/>
		<path class="st0" d="M435.2,153.3v-24.1h-12.8c-1.5,0-2.7-1.2-2.7-2.7v-6.6c0-1.5,1.2-2.7,2.7-2.7c10.4,0,12.8-4.5,12.8-16.5
			c0-1.5,1.2-2.7,2.7-2.7h10.5c1.5,0,2.7,1.2,2.7,2.7v16.5h25.4c1.5,0,2.7,1.2,2.7,2.7c0,0,0,0,0,0v6.7c0,1.5-1.2,2.7-2.7,2.7H451
			v21.5c0,11.7,0,22.6,9.4,22.6c8.8,0,9.3-5.6,11.2-9.5c0.5-1,1.7-1.4,2.7-0.9l6.5,2.8c1.7,0.8,1.6,2.4,0.9,4.4
			c-2.1,6.5-5.5,16.3-21.3,16.3C435.6,186.3,435.2,171,435.2,153.3z"/>
		<path class="st0" d="M496,89.1h11.9c1.5,0,2.7,1.2,2.7,2.7v39.6c4.4-9.1,14.8-15.4,27.3-15.4c24.3,0,34.2,14.8,34.2,33v32.2
			c0,1.5-1.2,2.7-2.7,2.7h-11.9c-1.5,0-2.7-1.2-2.7-2.7v-26.9c0-12.8-3.1-22.8-19.4-22.8c-16.4,0-24.9,10-24.9,22.8v26.9
			c0,1.5-1.2,2.7-2.7,2.7H496c-1.5,0-2.6-1.2-2.6-2.7V91.8C493.4,90.3,494.6,89.1,496,89.1z"/>
		<path class="st0" d="M620.1,115.2c26.8,0,37.9,16.4,37.9,30v5.5c0,3-2.3,5.4-5.3,5.5c0,0-0.1,0-0.1,0h-52.3
			c2.5,8.8,11.2,16.6,24.1,16.6c11.1,0,18.7-4.5,22.8-6.5c1-0.4,2.2-0.2,2.9,0.5l5.9,5.7c1.1,0.9,1.2,2.6,0.3,3.6
			c-0.1,0.1-0.2,0.3-0.4,0.4c-6.1,5.1-15.2,9.9-31.4,9.9c-27.1,0-42.3-16-42.3-35.6S593.1,115.2,620.1,115.2z M640.7,145.2
			c-0.1-9.3-5.5-16.4-20.5-16.4c-13.1,0-18.8,6.9-20.2,16.4H640.7z"/>
		<path class="st0" d="M672.1,117.2h11.9c1.5,0,2.7,1.2,2.7,2.6c0,0,0,0,0,0.1v11.4c4.4-9.1,12.5-15.4,25-15.4
			c8,0,14.5,4.1,16.8,9.1c0.2,0.6,0.2,1.3-0.1,1.9l-4.7,8.8c-1.3,2.4-3.7,2.4-5.7,0.3c-2.6-2.8-6.3-4.4-10.1-4.4
			c-16.5,0-21.2,10-21.2,22.8v26.9c0,1.5-1.2,2.7-2.7,2.7h-11.9c-1.5,0-2.7-1.2-2.7-2.7v-61.2C669.4,118.4,670.6,117.2,672.1,117.2z
			"/>
	</g>
</g>
</svg>
