<svg width="25" height="16" viewBox="0 0 25 16" fill="none" xmlns="http://www.w3.org/2000/svg">
<path d="M24.3628 7.63723C21.789 2.87924 17.2754 0 12.2807 0C7.28592 0 2.76468 2.87924 0.213842 7.63723L0 7.99618L0.198568 8.36277C2.77231 13.1208 7.28592 16 12.2807 16C17.2754 16 21.7967 13.1589 24.3628 8.36277L24.5613 7.99618L24.3628 7.63723ZM12.2807 14.4344C7.98091 14.4344 4.03246 12.0363 1.74129 7.99618C4.03246 3.95609 7.98091 1.55799 12.2807 1.55799C16.5804 1.55799 20.4831 3.96372 22.8124 7.99618C20.4831 12.0363 16.5728 14.4344 12.2807 14.4344Z" fill="#FFEF5B"/>
<path d="M12.5023 13.2583C15.3958 13.2583 17.7415 10.9126 17.7415 8.01911C17.7415 5.12561 15.3958 2.77997 12.5023 2.77997C9.60883 2.77997 7.26318 5.12561 7.26318 8.01911C7.26318 10.9126 9.60883 13.2583 12.5023 13.2583Z" fill="#FFEF5B"/>
</svg>
