<svg width="25" height="25" viewBox="0 0 25 25" fill="none" xmlns="http://www.w3.org/2000/svg">
<g clip-path="url(#clip0)">
<path d="M9.44484 22.5547C11.0862 23.236 12.3818 23.8727 13.2608 24.3438C13.9991 24.7395 14.8602 24.8837 15.6725 24.6792L22.12 23.0558C23.32 22.7537 24.2263 21.7463 24.279 20.51C24.3776 18.1992 24.1976 15.33 23.2829 12.7805L20.5637 1.7855C20.5637 1.7855 20.2334 1.08374 19.0662 1.32018C17.899 1.55663 18.0415 2.45544 18.0415 2.45544L19.2878 8.49286C19.2878 8.49286 19.5381 9.12346 19.0662 9.27311C18.5942 9.42275 18.4356 8.7608 18.4356 8.7608L15.7559 0.682049C15.7559 0.682049 15.4742 -0.224484 14.1499 0.0526972C12.7214 0.351695 12.9973 1.50963 12.9973 1.50963L15.0481 9.08724C15.0481 9.08724 15.2744 9.75585 14.7994 9.9017C14.3243 10.0475 14.1499 9.51026 14.1499 9.51026L10.6722 0.957915C10.6722 0.957915 10.2147 -0.0153187 8.9382 0.41817C7.66167 0.851658 7.99239 2.06134 7.99239 2.06134L11.2462 10.4331C11.2462 10.4331 11.5372 10.9714 10.9874 11.2435C10.4376 11.5157 10.1599 10.8888 10.1599 10.8888L6.41605 3.283C6.41605 3.283 5.77509 2.77961 4.76832 3.283C3.76156 3.78638 3.97272 4.81992 3.97272 4.81992L8.58352 15.2632C8.83989 16.0069 9.45339 18.1106 8.58352 18.6523C8.17854 18.9045 7.36186 18.6523 7.36186 18.6523C7.36186 18.6523 2.00204 18.0682 1.72644 18.1006C-0.207312 18.3279 -0.270082 20.7353 0.347129 20.6621C0.964339 20.589 2.19111 20.5922 3.34987 20.8299C4.50862 21.0676 6.12172 21.1753 9.44484 22.5547Z" fill="#2d62f7"/>
</g>
<defs>
<clipPath id="clip0">
<rect width="25" height="25" fill="white"/>
</clipPath>
</defs>
</svg>
