<svg width="40" height="41" viewBox="0 0 40 41" fill="none" xmlns="http://www.w3.org/2000/svg">
<g clip-path="url(#clip0)">
<path d="M15.1117 36.7136C18.2014 38.0122 20.5254 39.2107 21.8991 39.9899C22.6355 40.4077 23.5051 40.5558 24.3255 40.3466L36.5908 37.2199C37.7884 36.9146 38.6857 35.9068 38.7741 34.6741C39.0554 30.7509 38.8871 25.4922 37.2526 20.8794L32.9019 3.06755C32.9019 3.06755 32.3734 1.9307 30.5059 2.31375C28.6383 2.69679 28.8665 4.15286 28.8665 4.15286L30.8606 13.9335C30.8606 13.9335 31.261 14.9551 30.5059 15.1975C29.7508 15.4399 29.497 14.3675 29.497 14.3675L25.2094 1.27997C25.2094 1.27997 24.7586 -0.188615 22.6398 0.260418C20.3543 0.744794 20.7956 2.62065 20.7956 2.62065L24.077 14.8964C24.077 14.8964 24.4391 15.9795 23.679 16.2158C22.9189 16.4521 22.6398 15.5817 22.6398 15.5817L17.0755 1.72687C17.0755 1.72687 16.3435 0.150233 14.3011 0.852484C12.2587 1.55474 12.7878 3.51442 12.7878 3.51442L17.9938 17.0767C17.9938 17.0767 18.4596 17.9486 17.5799 18.3895C16.7002 18.8305 16.2558 17.815 16.2558 17.815L10.2657 5.4935C10.2657 5.4935 9.24014 4.67802 7.62932 5.4935C6.01849 6.30898 6.35636 7.98333 6.35636 7.98333L13.7336 24.9014C14.1438 26.1063 15.1254 29.5142 13.7336 30.3918C13.0857 30.8003 11.779 30.3918 11.779 30.3918C11.779 30.3918 3.20326 29.4455 2.76231 29.498C-0.331698 29.8663 -0.43213 33.7662 0.555406 33.6477C1.54294 33.5292 3.50578 33.5344 5.35979 33.9195C7.2138 34.3046 9.79475 34.479 15.1117 36.7136Z" fill="white"/>
</g>
<defs>
<clipPath id="clip0">
<rect width="40" height="40.5" fill="white" transform="translate(0 0.175049)"/>
</clipPath>
</defs>
</svg>
