<svg width="25" height="25" viewBox="0 0 25 25" fill="none" xmlns="http://www.w3.org/2000/svg">
<path fill-rule="evenodd" clip-rule="evenodd" d="M2 2V23H23V2H2ZM1 0C0.447715 0 0 0.447716 0 1V24C0 24.5523 0.447716 25 1 25H24C24.5523 25 25 24.5523 25 24V1C25 0.447715 24.5523 0 24 0H1Z" fill="#451A78"/>
<path fill-rule="evenodd" clip-rule="evenodd" d="M5.93934 5.93934C6.52513 5.35355 7.47487 5.35355 8.06066 5.93934L12.5 10.3787L16.9393 5.93934C17.5251 5.35355 18.4749 5.35355 19.0607 5.93934C19.6464 6.52513 19.6464 7.47487 19.0607 8.06066L14.6213 12.5L19.0607 16.9393C19.6464 17.5251 19.6464 18.4749 19.0607 19.0607C18.4749 19.6464 17.5251 19.6464 16.9393 19.0607L12.5 14.6213L8.06066 19.0607C7.47487 19.6464 6.52513 19.6464 5.93934 19.0607C5.35355 18.4749 5.35355 17.5251 5.93934 16.9393L10.3787 12.5L5.93934 8.06066C5.35355 7.47487 5.35355 6.52513 5.93934 5.93934Z" fill="#451A78"/>
</svg>
