<svg width="25" height="25" viewBox="0 0 25 25" fill="none" xmlns="http://www.w3.org/2000/svg">
<path fill-rule="evenodd" clip-rule="evenodd" d="M12.9542 24.9919C19.6474 24.7528 25 19.2515 25 12.5C25 5.59644 19.4036 0 12.5 0C5.59644 0 0 5.59644 0 12.5C0 12.6577 0.00292157 12.8148 0.00871356 12.9711L0 12.963V23.1481V23.2168L0.00128857 23.2178C0.0379536 24.2083 0.852449 25 1.85185 25C1.94793 25 2.0423 24.9926 2.13444 24.9785L2.16049 25H12.963L12.9542 24.9919ZM23.1481 12.5C23.1481 18.3808 18.3808 23.1481 12.5 23.1481C6.61914 23.1481 1.85181 18.3808 1.85181 12.5C1.85181 6.61914 6.61914 1.85181 12.5 1.85181C18.3808 1.85181 23.1481 6.61914 23.1481 12.5ZM5.67131 7.40735C5.09601 7.40735 4.62964 7.87372 4.62964 8.44902V15.6249C4.62964 16.2002 5.09601 16.6666 5.67131 16.6666H19.3287C19.904 16.6666 20.3704 16.2002 20.3704 15.6249V8.44902C20.3704 7.87372 19.904 7.40735 19.3287 7.40735H5.67131Z" fill="#451A78"/>
</svg>
