<svg width="31" height="25" viewBox="0 0 31 25" fill="none" xmlns="http://www.w3.org/2000/svg">
<path fill-rule="evenodd" clip-rule="evenodd" d="M6.5 7C8.433 7 10 5.433 10 3.5C10 1.567 8.433 0 6.5 0C4.567 0 3 1.567 3 3.5C3 5.433 4.567 7 6.5 7ZM6.5 16C8.433 16 10 14.433 10 12.5C10 10.567 8.433 9 6.5 9C4.567 9 3 10.567 3 12.5C3 14.433 4.567 16 6.5 16ZM10 21.5C10 23.433 8.433 25 6.5 25C5.48838 25 4.577 24.5708 3.93801 23.8846L9.78165 20.2804C9.92284 20.6602 10 21.0711 10 21.5ZM21.0928 13.304C21.4561 14.8495 22.8437 16 24.5 16C26.433 16 28 14.433 28 12.5C28 11.4224 27.513 10.4586 26.7472 9.81656L21.0928 13.304ZM27.6251 5.07761C27.8649 4.60356 28 4.06756 28 3.5C28 1.567 26.433 0 24.5 0C22.567 0 21 1.567 21 3.5C21 5.433 22.567 7 24.5 7C24.5028 7 24.5055 7 24.5083 6.99999L27.6251 5.07761ZM18.5042 10.7032C17.8926 9.68289 16.7761 9 15.5 9C13.567 9 12 10.567 12 12.5C12 13.1911 12.2003 13.8354 12.546 14.378L18.5042 10.7032ZM3.29966 20.0809L6.66711 18.0039C6.61173 18.0013 6.55602 18 6.5 18C5.07219 18 3.84408 18.855 3.29966 20.0809ZM15.5 7C17.433 7 19 5.433 19 3.5C19 1.567 17.433 0 15.5 0C13.567 0 12 1.567 12 3.5C12 5.433 13.567 7 15.5 7ZM19 21.5C19 23.433 17.433 25 15.5 25C13.567 25 12 23.433 12 21.5C12 19.567 13.567 18 15.5 18C17.433 18 19 19.567 19 21.5ZM24.5 25C26.433 25 28 23.433 28 21.5C28 19.567 26.433 18 24.5 18C22.567 18 21 19.567 21 21.5C21 23.433 22.567 25 24.5 25Z" fill="#F58DAB"/>
<path fill-rule="evenodd" clip-rule="evenodd" d="M30.8123 3.89171C31.1762 4.51583 30.9727 5.32924 30.3578 5.7085L2.62715 22.812C2.01224 23.1912 1.21875 22.9927 0.85484 22.3686C0.49093 21.7445 0.694409 20.9311 1.30932 20.5518L29.0399 3.44835C29.6549 3.06909 30.4484 3.26759 30.8123 3.89171Z" fill="#F58DAB"/>
</svg>
