<svg width="25" height="25" viewBox="0 0 25 25" fill="none" xmlns="http://www.w3.org/2000/svg">
<path fill-rule="evenodd" clip-rule="evenodd" d="M7 3.5C7 5.433 5.433 7 3.5 7C1.567 7 0 5.433 0 3.5C0 1.567 1.567 0 3.5 0C5.433 0 7 1.567 7 3.5ZM7 12.5C7 14.433 5.433 16 3.5 16C1.567 16 0 14.433 0 12.5C0 10.567 1.567 9 3.5 9C5.433 9 7 10.567 7 12.5ZM3.5 25C5.433 25 7 23.433 7 21.5C7 19.567 5.433 18 3.5 18C1.567 18 0 19.567 0 21.5C0 23.433 1.567 25 3.5 25ZM16 3.5C16 5.433 14.433 7 12.5 7C10.567 7 9 5.433 9 3.5C9 1.567 10.567 0 12.5 0C14.433 0 16 1.567 16 3.5ZM12.5 25C14.433 25 16 23.433 16 21.5C16 19.567 14.433 18 12.5 18C10.567 18 9 19.567 9 21.5C9 23.433 10.567 25 12.5 25ZM25 3.5C25 5.433 23.433 7 21.5 7C19.567 7 18 5.433 18 3.5C18 1.567 19.567 0 21.5 0C23.433 0 25 1.567 25 3.5ZM21.5 16C23.433 16 25 14.433 25 12.5C25 10.567 23.433 9 21.5 9C19.567 9 18 10.567 18 12.5C18 14.433 19.567 16 21.5 16ZM25 21.5C25 23.433 23.433 25 21.5 25C19.567 25 18 23.433 18 21.5C18 19.567 19.567 18 21.5 18C23.433 18 25 19.567 25 21.5ZM12.5 16C14.433 16 16 14.433 16 12.5C16 10.567 14.433 9 12.5 9C10.567 9 9 10.567 9 12.5C9 14.433 10.567 16 12.5 16Z" fill="#F58DAB"/>
</svg>
