<svg width="28" height="28" viewBox="0 0 28 28" fill="none" xmlns="http://www.w3.org/2000/svg">
<path fill-rule="evenodd" clip-rule="evenodd" d="M27.1669 3.23333C27.7524 2.64725 27.7639 1.68587 27.1925 1.08605C26.6211 0.486218 25.6832 0.475077 25.0977 1.06116L19.1312 7.03376C18.9663 6.09542 18.1472 5.38243 17.1615 5.38243H4.00023C2.89566 5.38243 2.00023 6.27786 2.00023 7.38243V20.3824C2.00023 21.422 2.79329 22.2762 3.80739 22.3733L0.939373 25.2442C0.353886 25.8303 0.342465 26.7917 0.913865 27.3915C1.48526 27.9913 2.42311 28.0025 3.00859 27.4164L27.1669 3.23333ZM17.1615 22.3824H10.2899L26.5868 6.06884C26.604 6.14296 26.6131 6.22134 26.6131 6.30348V21.4614C26.6131 22.3474 25.546 22.7958 24.9132 22.1755L19.1615 16.5382V20.3824C19.1615 21.487 18.2661 22.3824 17.1615 22.3824Z" fill="#451A78"/>
</svg>
