<svg width="32" height="32" viewBox="0 0 32 32" fill="none" xmlns="http://www.w3.org/2000/svg">
<path d="M29.0814 22.7496C29.7096 23.0737 29.9604 23.8491 29.5871 24.4494C28.0098 26.9859 25.7485 29.0381 23.052 30.3621C19.9714 31.8747 16.486 32.3567 13.1105 31.7369C9.73501 31.1171 6.64823 29.4284 4.30592 26.9201C1.96361 24.4117 0.489892 21.2167 0.102355 17.8067C-0.285183 14.3968 0.433995 10.9525 2.15371 7.98254C3.87343 5.01256 6.50254 2.67424 9.65288 1.31281C12.8032 -0.0486287 16.3079 -0.361025 19.6493 0.421738C22.5741 1.10689 25.2383 2.59933 27.3446 4.71722C27.8431 5.21845 27.7726 6.03028 27.2332 6.48713L24.9133 8.45175C24.3738 8.9086 23.5709 8.83473 23.0513 8.35543C21.7372 7.14326 20.1268 6.28519 18.3721 5.87413C16.2001 5.36534 13.9221 5.56839 11.8744 6.45333C9.82665 7.33826 8.11773 8.85817 6.99992 10.7887C5.8821 12.7191 5.41464 14.9579 5.66654 17.1744C5.91844 19.3909 6.87635 21.4676 8.39886 23.0981C9.92136 24.7285 11.9278 25.8262 14.1218 26.229C16.3159 26.6319 18.5814 26.3186 20.5838 25.3354C22.2015 24.541 23.5783 23.3435 24.5869 21.8673C24.9857 21.2837 25.7515 21.0315 26.3798 21.3557L29.0814 22.7496Z" fill="black"/>
<path d="M31.3053 13.1038C31.3174 13.8364 30.6253 14.3772 29.9174 14.1882L20.4457 11.6596C19.5656 11.4247 19.3332 10.2848 20.051 9.72397L29.3606 2.45054C30.0784 1.88972 31.1281 2.39104 31.1432 3.30183L31.3053 13.1038Z" fill="black"/>
</svg>
