<svg xmlns="http://www.w3.org/2000/svg" viewBox="0 0 639.37 141.8"><defs><style>.cls-1{fill:#2a2c6f;}</style></defs><g id="Layer_2" data-name="Layer 2"><g id="Layer_1-2" data-name="Layer 1"><g id="Layer_2-2" data-name="Layer 2"><g id="Layer_1-2-2" data-name="Layer 1-2"><path class="cls-1" d="M270,141.79a14.13,14.13,0,0,1-9.72-3.45l2.94-3.92a9.92,9.92,0,0,0,6.54,2.89c2.31,0,3.14-1,3.14-2.16s-1-1.66-2.93-2.09l-2.8-.65c-2.74-.64-5.91-2.15-5.91-6.39,0-3.21,2.71-6.54,8.15-6.54a13.19,13.19,0,0,1,8.75,3.17l-2.93,3.88a9.7,9.7,0,0,0-6-2.49c-2.07,0-2.52,1-2.52,1.66,0,1.14.93,1.59,2.55,2l3.05.73c3.79.94,6,2.8,6,6.16C278.38,138.59,275.46,141.79,270,141.79Z"/><path class="cls-1" d="M304.7,119.87v4.46H295v3.92h8.74v4.15H295V137h10v4.46H289.62V119.87Z"/><path class="cls-1" d="M322,119.87l8,12.34V119.87h5.14v21.55h-4.89l-8.73-13.54v13.54h-5.15V119.87Z"/><path class="cls-1" d="M352.93,119.87v21.55h-5.39V119.87Z"/><path class="cls-1" d="M364.13,130.68c0-6.09,4.1-11.13,11.11-11.13s11.11,5,11.11,11.13-4.12,11.11-11.11,11.11S364.13,136.77,364.13,130.68Zm16.72,0c0-3.6-2.16-6.64-5.61-6.64s-5.6,3-5.6,6.64,2.1,6.65,5.6,6.65S380.85,134.28,380.85,130.68Z"/><path class="cls-1" d="M408.42,119.87c4.67,0,7.81,3.11,7.81,6.84a7.22,7.22,0,0,1-4.66,6.89l4.62,7.82h-6.07l-4.16-7.2h-3v7.2h-5.37V119.87Zm-5.48,4.22V130h4.3c2.13,0,3.54-1.2,3.54-3.2,0-1.76-1.41-2.74-3.54-2.74Z"/><path class="cls-1" d="M447.57,119.87v8.23h8v-8.23H461v21.55h-5.38v-8.87h-8v8.86h-5.39V119.87Z"/><path class="cls-1" d="M488.34,119.87v4.46h-9.69v3.92h8.74v4.15h-8.74V137h10v4.46H473.26V119.87Z"/><path class="cls-1" d="M498.1,141.42l7.75-21.55h6.07l7.85,21.55h-5.69L512.9,138h-8.31l-1.14,3.45Zm13.35-7.76-2.72-8.09-2.68,8.09Z"/><path class="cls-1" d="M535.41,119.87V137h8.48v4.46H530V119.87Z"/><path class="cls-1" d="M567.32,119.87v4.46h-6v17.09h-5.39V124.33H549.8v-4.46Z"/><path class="cls-1" d="M583.29,119.87v8.23h8v-8.23h5.39v21.55h-5.39v-8.87h-8v8.86h-5.38V119.87Z"/><path class="cls-1" d="M80.44,8.14l.13,10a2.72,2.72,0,0,1-2.64,2.8H48.74V92a2.67,2.67,0,0,1-2.66,2.67H34.54A2.67,2.67,0,0,1,31.88,92V21.07H2.66A2.68,2.68,0,0,1,0,18.39H0V8.27A2.67,2.67,0,0,1,2.66,5.6l75.11-.14A2.68,2.68,0,0,1,80.44,8.14Z"/><path class="cls-1" d="M73.91,61.65c0-19.6,12.39-35.55,39.42-35.55s39.28,16,39.28,35.55-12.39,35.56-39.28,35.56S73.91,81.21,73.91,61.65Zm39.42,22c15.31,0,21.83-9.86,21.83-22s-6.65-22-21.83-22c-15.45,0-22,9.86-22,22S97.88,83.63,113.33,83.63Z"/><path class="cls-1" d="M166.32,110.78l4.14-4.93c.93-1.06,2.8-1.86,4.12.26,5.46,8.67,17.74,11.06,25,11.06,21,0,23.44-9.06,23.7-17.18V83.36C220,94.68,205.08,97.21,195.88,97.21c-24.1,0-34.62-16-34.62-35.56s13.19-35.51,36.49-35.51c9.19,0,22.78,4.66,25.57,14.24V30.8A2.67,2.67,0,0,1,226,28.14h11.85a2.67,2.67,0,0,1,2.66,2.66V100c0,20.53-16.24,32.62-40.47,32.62-14.94,0-28.63-5.19-35.29-18.51C164.06,112.64,165.4,112,166.32,110.78Zm34.37-27.15c15.31,0,21.83-9.86,21.83-22s-6.66-22-21.83-22c-15.45,0-22,9.86-22,22S185.23,83.63,200.69,83.63Z"/><path class="cls-1" d="M289.5,26.14c26.77,0,37.95,16.38,37.95,30v5.46A5.4,5.4,0,0,1,322.07,67H269.66c2.53,8.79,11.2,16.65,24.1,16.65,11.06,0,18.67-4.53,22.77-6.54a2.64,2.64,0,0,1,2.93.54l5.86,5.72a2.58,2.58,0,0,1,.24,3.65,2.41,2.41,0,0,1-.37.34C319.06,92.4,310,97.2,293.76,97.2c-27.07,0-42.35-16-42.35-35.56S262.48,26.14,289.5,26.14ZM310,56.1c-.13-9.33-5.46-16.38-20.53-16.38-13.07,0-18.77,6.92-20.24,16.38Z"/><path class="cls-1" d="M346,64.18V40.08H333.18a2.67,2.67,0,0,1-2.67-2.66V30.8a2.67,2.67,0,0,1,2.67-2.66c10.38,0,12.78-4.52,12.78-16.51A2.68,2.68,0,0,1,348.62,9h10.52a2.67,2.67,0,0,1,2.67,2.66V28.1h25.43a2.67,2.67,0,0,1,2.67,2.67v6.7a2.67,2.67,0,0,1-2.67,2.66H361.81V61.6c0,11.71,0,22.63,9.45,22.63,8.79,0,9.33-5.6,11.2-9.45a2.08,2.08,0,0,1,2.66-.94l6.53,2.81c1.74.79,1.6,2.38.94,4.38-2.13,6.54-5.46,16.25-21.31,16.25C346.36,97.21,346,81.89,346,64.18Z"/><path class="cls-1" d="M406.81,0h11.86a2.67,2.67,0,0,1,2.66,2.66V42.21c4.4-9.05,14.78-15.45,27.3-15.45,24.27,0,34.22,14.79,34.22,33V92a2.67,2.67,0,0,1-2.66,2.67H468.34A2.67,2.67,0,0,1,465.68,92V65.12c0-12.79-3.06-22.78-19.45-22.78s-24.9,10-24.9,22.78V92a2.67,2.67,0,0,1-2.66,2.67H406.81A2.69,2.69,0,0,1,404.18,92V2.66A2.67,2.67,0,0,1,406.81,0Z"/><path class="cls-1" d="M530.92,26.14c26.77,0,38,16.38,38,30v5.46A5.39,5.39,0,0,1,563.54,67H511.08c2.53,8.79,11.2,16.64,24.1,16.64,11.05,0,18.67-4.52,22.78-6.53a2.63,2.63,0,0,1,2.93.53l5.85,5.72A2.59,2.59,0,0,1,567,87a3.33,3.33,0,0,1-.39.36c-6.12,5.06-15.18,9.86-31.43,9.86-27.07,0-42.34-16-42.34-35.56S503.89,26.14,530.92,26.14Zm20.54,30c-.14-9.33-5.46-16.38-20.54-16.38-13.06,0-18.78,6.92-20.24,16.38Z"/><path class="cls-1" d="M582.85,28.1h11.86a2.65,2.65,0,0,1,2.69,2.64s0,0,0,.06V42.21c4.4-9.05,12.52-15.45,25-15.45,8,0,14.51,4.14,16.8,9.06a2.28,2.28,0,0,1-.14,1.86l-4.67,8.8c-1.32,2.39-3.73,2.39-5.72.26a14,14,0,0,0-10.12-4.4c-16.52,0-21.19,10-21.19,22.78V92a2.67,2.67,0,0,1-2.66,2.67H582.89A2.67,2.67,0,0,1,580.23,92V30.8A2.66,2.66,0,0,1,582.85,28.1Z"/></g></g></g></g></svg>