<svg width="25" height="21" viewBox="0 0 25 21" fill="none" xmlns="http://www.w3.org/2000/svg">
<path d="M12.1059 4.76196C11.4274 4.76269 10.7545 4.87539 10.119 5.09473L17.4966 11.9048C17.7373 11.3109 17.8595 10.6816 17.8571 10.0475C17.8504 8.64357 17.2416 7.29922 16.1637 6.30865C15.0859 5.31808 13.6269 4.76195 12.1059 4.76196Z" fill="#FFEF5B"/>
<path d="M24.7737 9.51151C22.1429 4.69833 17.5293 1.78571 12.4239 1.78571C11.0339 1.78894 9.65317 2.01059 8.33337 2.4424L9.59021 3.69398C10.5159 3.45721 11.4678 3.33523 12.4239 3.33087C16.8189 3.33087 20.8158 5.75677 23.1968 9.84372C22.3233 11.36 21.1655 12.6973 19.7854 13.7839L20.8939 14.8809C22.4911 13.6057 23.8177 12.0303 24.7971 10.2455L25 9.87462L24.7737 9.51151Z" fill="#FFEF5B"/>
<path d="M1.91403 1.09654L5.34236 4.37879C3.17538 5.71459 1.40431 7.56225 0.199858 9.74372L0 10.0896L0.199858 10.4429C2.79033 15.0277 7.33325 17.8022 12.3605 17.8022C14.3226 17.8018 16.2593 17.3766 18.0257 16.5584L21.8691 20.2381L23.2143 19.1342L3.22848 0L1.91403 1.09654ZM8.29411 7.20476C7.57496 8.17575 7.23788 9.35905 7.34257 10.5451C7.44725 11.7312 7.98695 12.8436 8.86609 13.6853C9.74524 14.527 10.9071 15.0437 12.146 15.1439C13.3849 15.2441 14.6208 14.9214 15.6351 14.2329L16.8649 15.4104C15.4412 15.9931 13.9088 16.2935 12.3605 16.2935C8.03276 16.2935 4.09709 13.9827 1.7526 10.0896C2.87773 8.18224 4.49813 6.58526 6.45695 5.45325L8.29411 7.20476Z" fill="#FFEF5B"/>
</svg>
