<svg width="32" height="32" viewBox="0 0 32 32" fill="none" xmlns="http://www.w3.org/2000/svg">
<g clip-path="url(#clip0)">
<path d="M25.5169 15.3347C26.0692 15.3347 26.5217 15.7834 26.4707 16.3334C26.2423 18.7938 25.1752 21.1094 23.4365 22.8716C21.4642 24.8705 18.7891 25.9935 15.9998 25.9935C13.2104 25.9935 10.5354 24.8705 8.56301 22.8716C6.82428 21.1094 5.75722 18.7938 5.52884 16.3334C5.47779 15.7834 5.93032 15.3347 6.48261 15.3347H7.63775C8.19003 15.3347 8.63093 15.7844 8.70376 16.3319C8.91806 17.9425 9.64739 19.4484 10.794 20.6105C12.1747 22.0098 14.0472 22.7958 15.9998 22.7958C17.9523 22.7958 19.8248 22.0098 21.2055 20.6105C22.3521 19.4484 23.0815 17.9425 23.2957 16.3319C23.3686 15.7844 23.8095 15.3347 24.3618 15.3347H25.5169Z" fill="#a0a0f2"/>
<rect x="10.2397" width="11.52" height="20.7557" rx="5.76" fill="#a0a0f2"/>
<rect x="14.2466" y="24.342" width="3.50572" height="6.5372" fill="#a0a0f2"/>
<rect x="22.3677" y="28.447" width="3.55291" height="12.7371" rx="1" transform="rotate(90 22.3677 28.447)" fill="#a0a0f2"/>
</g>
<defs>
<clipPath id="clip0">
<rect width="32" height="32" fill="white"/>
</clipPath>
</defs>
</svg>
