<?xml version="1.0" encoding="utf-8"?>
<svg width="35" height="36" viewBox="0 0 35 36" fill="none" xmlns="http://www.w3.org/2000/svg">
  <path fill-rule="evenodd" clip-rule="evenodd" d="M34.2134 3.85872C34.9628 3.10853 34.9774 1.87798 34.246 1.1102C33.5146 0.342417 32.3142 0.328158 31.5648 1.07835L23.9665 8.68443V8.60961C23.9665 7.50504 23.071 6.60961 21.9665 6.60961H4.00001C2.89544 6.60961 2.00001 7.50504 2.00001 8.60961V26.3696C2.00001 27.4742 2.89544 28.3696 4.00001 28.3696H4.30138L0.642085 32.0326C-0.107339 32.7828 -0.121957 34.0134 0.609434 34.7812C1.34083 35.549 2.54126 35.5632 3.29069 34.813L34.2134 3.85872ZM21.9665 28.3696H12.6108L33.4709 7.48818C33.4928 7.58305 33.5046 7.68337 33.5046 7.78851V27.1906C33.5046 28.3248 32.1386 28.8986 31.3286 28.1047L23.9665 20.889V26.3696C23.9665 27.4742 23.071 28.3696 21.9665 28.3696Z" style="fill: rgb(0, 0, 0);"/>
</svg>