<svg width="40" height="42" viewBox="0 0 40 42" fill="none" xmlns="http://www.w3.org/2000/svg">
<path d="M0 28.347C0 27.4413 0.716344 26.707 1.6 26.707H4.8C5.68366 26.707 6.4 27.4413 6.4 28.347V39.7099C6.4 40.6156 5.68366 41.3499 4.8 41.3499H1.6C0.716344 41.3499 0 40.6156 0 39.7099V28.347Z" fill="white"/>
<path d="M11.2002 19.5613C11.2002 18.6555 11.9165 17.9213 12.8002 17.9213H16.0002C16.8839 17.9213 17.6002 18.6555 17.6002 19.5613V39.7098C17.6002 40.6156 16.8839 41.3498 16.0002 41.3498H12.8002C11.9165 41.3498 11.2002 40.6156 11.2002 39.7098V19.5613Z" fill="white"/>
<path d="M22.3999 10.7757C22.3999 9.86999 23.1162 9.13574 23.9999 9.13574H27.1999C28.0836 9.13574 28.7999 9.87 28.7999 10.7757V39.71C28.7999 40.6158 28.0836 41.35 27.1999 41.35H23.9999C23.1162 41.35 22.3999 40.6158 22.3999 39.71V10.7757Z" fill="white"/>
<path d="M33.6001 1.98998C33.6001 1.08423 34.3164 0.349976 35.2001 0.349976H38.4001C39.2838 0.349976 40.0001 1.08423 40.0001 1.98998V39.71C40.0001 40.6157 39.2838 41.35 38.4001 41.35H35.2001C34.3164 41.35 33.6001 40.6157 33.6001 39.71V1.98998Z" fill="white"/>
</svg>
