<svg width="56" height="55" viewBox="0 0 56 55" fill="none" xmlns="http://www.w3.org/2000/svg">
<path fill-rule="evenodd" clip-rule="evenodd" d="M54.3334 5.46669C55.5044 4.29452 55.5273 2.37178 54.3845 1.17212C53.2417 -0.0275337 51.366 -0.0498149 50.195 1.12236L38.3226 13.0069V11.7649C38.3226 10.6603 37.4271 9.7649 36.3226 9.7649H5.99999C4.89542 9.7649 3.99999 10.6603 3.99999 11.7649V41.7649C3.99999 42.8695 4.89542 43.7649 5.99999 43.7649H7.59599L1.87829 49.4884C0.707314 50.6606 0.684472 52.5834 1.82727 53.783C2.97007 54.9827 4.84576 55.0049 6.01673 53.8328L54.3334 5.46669ZM36.3226 43.7649H20.5793L53.1732 11.1377C53.2075 11.2859 53.2258 11.4427 53.2258 11.607V41.9228C53.2258 43.6949 51.0915 44.5916 49.8259 43.3511L38.3226 32.0765V41.7649C38.3226 42.8695 37.4271 43.7649 36.3226 43.7649Z" fill="#ECE5EE" fill-opacity="0.5"/>
</svg>
