<svg width="25" height="25" xmlns="http://www.w3.org/2000/svg">

 <g>
  <title>background</title>
  <rect fill="none" id="canvas_background" height="402" width="582" y="-1" x="-1"/>
 </g>
 <g>
  <title>Layer 1</title>
  <line stroke-linecap="null" stroke-linejoin="null" id="svg_12" y2="13.000448" x2="24.601306" y1="0.681755" x1="0.9784" fill-opacity="null" stroke-opacity="null" stroke-width="3" stroke="#00ff00" fill="none"/>
  <line stroke-linecap="null" stroke-linejoin="null" id="svg_13" y2="12.275819" x2="24.601306" y1="23.724958" x1="1.703029" fill-opacity="null" stroke-opacity="null" stroke-width="3" stroke="#00ff00" fill="none"/>
  <line stroke-linecap="null" stroke-linejoin="null" id="svg_14" y2="24.449587" x2="1.413177" y1="0.246977" x1="1.558103" stroke-width="3" stroke="#00ff00" fill="none"/>
  <path stroke="#00ff00" d="m4.166767,5.899084c0,0 0,0 0,-0.144926c0,-0.144926 0,-0.289852 -0.144926,-0.434777c0,0 0,-0.144926 0,-0.144926c0,-0.144926 0,-0.144926 0,-0.289852c0,0 0,0 0,-0.144926c0,0 0,0 0,0.144926c0,0.144926 0.071515,0.272251 0.144926,0.724629c0.069643,0.429163 0.311496,0.793363 0.434778,0.869555c0.275665,0.170371 0.300883,0.379316 0.434777,0.434777c0.189355,0.078434 0.311496,0.21366 0.434777,0.289852c0.275665,0.170371 0.144926,0.289852 0.144926,0.724629c0,0.144926 0.083994,0.447214 0,0.724628c-0.151423,0.500117 -0.333796,0.691202 -0.434778,0.869555c-0.294409,0.519983 -0.289851,1.304332 -0.289851,1.739109c0,0.144926 0.025086,0.703286 0.144926,0.869555c0.189483,0.262894 0.144926,0.434777 0.289852,0.579703c0,0 0,0 0,0c0,-0.434778 0.06239,-0.743905 -0.144926,-1.304333c-0.112432,-0.303934 -0.338152,-0.995008 -0.434777,-1.304332c-0.305557,-0.978167 -0.287189,-1.262594 -0.434777,-2.028962c-0.08222,-0.426932 -0.289852,-1.159407 -0.289852,-1.304332c0,-0.289852 -0.211418,-0.535275 -0.289852,-0.724629c-0.055461,-0.133894 0.102478,-0.3323 0,-0.434778c-0.102478,-0.102478 -0.089465,-0.300883 -0.144926,-0.434777c-0.078433,-0.189354 -0.144926,-0.144926 -0.144926,-0.289852c0,-0.144926 0,-0.289852 0,-0.289852c0,-0.144926 0,-0.144926 0,-0.289851c0,-0.144926 0,-0.289852 0,-0.289852c0,0 0,0 0,0.144926c0,0.434777 0,1.304332 0,2.028961c0,1.73911 0.088512,2.616175 0.289852,3.912997c0.113373,0.73023 0.103831,2.030419 0.144926,2.608665c0.072646,1.022202 0.144926,1.304332 0.144926,2.028961c0,0.144925 0.144926,0.579703 0.144926,0.724628c0,0.289852 0,0.289852 0,0.579703c0,0 0,0.289852 0,0.289852c0,0.289852 0.023214,0.436647 0,0.579702c-0.073411,0.452379 -0.144926,0.579704 -0.144926,0.869555c0,0.144926 0,0.434778 0,0.434778c0,0.289852 0,0.289852 0,0.434778c0,0 0,0.144924 0,0.28985c0,0.144926 0,0.289852 0,0.289852c0,0.144926 0,0.434778 0,0.579702c0,0.289852 0.055461,0.44581 0,0.579704c-0.078433,0.189356 -0.144926,0.144926 -0.289852,0.289852c0,0 0,0 0,0.144926c0,0 -0.144926,0 -0.144926,0c0,0 -0.144926,0 -0.144926,0c0,0 0,-0.144926 0,-0.144926c0,0 0.704811,-0.311129 1.014481,-0.579704c1.094848,-0.949556 1.74356,-1.154242 2.753591,-2.028961c1.164567,-1.008553 1.884036,-1.884035 2.75359,-2.75359c0.724629,-0.724629 0.941073,-1.122116 2.173887,-1.884036c0.275664,-0.17037 0.638255,-0.204572 1.304332,-0.724628c0.323095,-0.252265 0.877309,-0.513109 1.159407,-0.579703c0.315395,-0.074454 0.434777,-0.289852 0.579703,-0.289852c0.144926,0 0.289851,0 0.289851,0c0.289852,0 0.434778,0 0.72463,0c0.28985,0 0.724628,-0.144925 1.014481,-0.144925c0.579702,0 0.724628,0 1.159405,0c0.144926,0 0.289852,0.144925 0.579704,0.144925c0.144926,0 0.289852,0 0.289852,0c0.144924,0 0.28985,0 0.28985,0c0,0 -0.155958,-0.05546 -0.28985,0c-0.189356,0.078433 -0.289852,0.144926 -0.579704,0.289852c-0.289852,0.144925 -0.852932,0.45357 -1.014481,0.579703c-0.666077,0.520057 -1.014481,0.724629 -1.594183,1.014481c-0.289852,0.144926 -1.131727,0.771214 -1.594185,1.014481c-0.690715,0.363337 -1.261217,0.516442 -2.028961,0.869555c-0.416368,0.191502 -1.114978,0.356344 -1.304332,0.434777c-0.267788,0.110922 -0.735662,0.234392 -0.869555,0.289852c-0.37871,0.156866 -0.554258,0.159113 -0.724628,0.434776c-0.076193,0.123281 -0.289852,0.289852 -0.434777,0.434778c-0.144926,0.144926 -0.289852,0.144926 -0.289852,0.144926c0,0 -0.144925,0.144926 -0.144925,0.144926c0,0 0,0.144926 0,0.144926c0.289851,0 0.444134,0.116074 1.159406,0c0.452377,-0.07341 1.476782,-0.681744 2.173887,-1.159407c1.363111,-0.934017 1.872196,-1.46551 2.463738,-1.884036c0.853136,-0.603607 1.414918,-1.069633 2.318813,-1.594184c0.280287,-0.162657 0.734194,-0.417047 1.014481,-0.579703c0.451948,-0.262276 0.456842,-0.323856 0.724628,-0.434777c0.189356,-0.078433 0.300884,-0.23439 0.434778,-0.289851c0.189356,-0.078433 0.144926,-0.144926 0.144926,-0.144926c0.144926,0 0.144926,0 0.28985,0c0,0 0,0.000001 -0.144924,0.144926c-0.144926,0.144926 -0.340025,0.247165 -0.579704,0.579702c-0.189484,0.262895 -0.289852,0.434778 -0.289852,0.434778c-0.144924,0.144925 -0.144924,0.144925 -0.144924,0.144925c0.28985,0 0.420694,-0.032493 0.724628,-0.144925c0.560427,-0.207315 0.699085,-0.360324 1.014481,-0.434778c0.141048,-0.033298 0.143841,0.017708 0,0c-0.593069,-0.073009 -1.197956,-0.020146 -2.318813,-0.434777c-0.303934,-0.112432 -0.920155,0.010045 -2.463738,-0.579703c-0.605443,-0.231318 -1.843309,-0.914513 -2.318813,-1.304332c-1.2123,-0.993848 -1.802333,-0.933275 -2.75359,-1.73911c-0.312772,-0.264956 -1.024046,-0.561972 -1.304333,-0.724629c-0.451948,-0.262276 -0.606661,-0.245294 -0.869555,-0.434777c-0.332538,-0.23968 -0.680071,-0.461734 -0.869555,-0.724629c-0.23968,-0.332538 -0.58358,-0.40148 -0.724629,-0.434777c-0.315395,-0.074455 -0.434777,-0.289852 -0.434777,-0.289852c-0.144926,-0.144926 -0.289852,-0.144926 -0.434778,-0.144926c-0.144926,0 -0.289852,0 -0.434777,-0.144926c0,0 -0.144926,0 -0.144926,0c-0.144926,0 -0.144926,0 -0.144926,0.144926c0,0.579703 -0.144926,1.159407 -0.144926,1.594184c0,1.159406 -0.232145,1.757823 0,3.188367c0.073411,0.452377 0.289852,1.449259 0.289852,2.028961c0,1.014482 0,1.594184 0,2.318813c0,0.724629 0,1.449258 -0.144926,2.028962c-0.144926,0.579702 -0.144926,1.014481 -0.144926,1.449257c0,0.289852 0,0.289852 0,0.434778c0,0.144926 0,0.144926 0,0.144926c0.144926,0 0.488594,-0.108223 0.869555,-0.72463c0.340741,-0.551331 1.419647,-2.911724 1.884036,-3.912996c0.545397,-1.175935 1.527372,-3.63981 1.884035,-4.927477c0.122334,-0.441668 0.381656,-2.177145 0.434778,-2.608665c0.073009,-0.593067 0.144925,-0.724629 0.144925,-0.869555c0,0 0,0.434778 0,0.869555c0,0.724629 0,1.159407 0,2.318813c0,0.724629 0,1.449258 0,1.884035c0,0.869555 -0.144925,1.304333 -0.144925,2.028962c0,0.289851 -0.033298,0.728505 0,0.869555c0.074454,0.315394 0.100496,0.356344 0.289851,0.434777c0.133894,0.055461 0.289851,0 0.289851,0c0.144926,0 0.216441,-0.272251 0.289852,-0.724628c0.023214,-0.143055 0.057934,-1.173446 -0.144926,-1.884036c-0.339914,-1.190678 -0.791117,-1.807405 -1.014481,-2.753591c-0.066594,-0.282098 -0.144926,-0.434777 -0.144926,-0.579703c0,-0.144926 -0.125992,0.018655 0,0.434778c0.151423,0.500116 0.579703,1.014481 1.159407,1.884035c0.579703,0.869555 1.241061,1.6438 1.594184,2.028961c0.627113,0.684011 1.033755,0.66224 1.594184,0.869555c0.303935,0.112432 0.869555,0.289851 1.159407,0.289851c0.579703,0 1.045159,0.041433 1.449259,-0.289851c0.158501,-0.12994 0.456657,-0.062989 0.724628,-0.434778c0.08474,-0.117569 0.144926,-0.289851 0.144926,-0.289851c0,0 0.144926,0 0.144926,0c0,0 0.144924,-0.144926 0.28985,-0.144926c0.289852,0 0.417177,-0.216441 0.869555,-0.289851c0.28611,-0.046429 0.579704,-0.144926 0.72463,-0.289852c0.144926,-0.144925 0.28985,-0.144925 0.434776,-0.144925c0,0 0,0 -0.144926,0c0,0 0.102478,0.042448 0,0.144925c-0.102476,0.102477 -0.144924,0 -0.144924,0.144926c0,0 -0.144926,0 -0.144926,0c0,0.144926 -0.042448,0.042448 -0.144926,0.144926c-0.102478,0.102477 0,0.144925 0,0.144925c-0.144926,0.144926 -0.144926,0.289852 -0.144926,0.289852c-0.144926,0.144926 -0.144926,0.289851 -0.144926,0.289851c-0.144926,0.144926 -0.144926,0.144926 -0.289852,0.289852c0,0 0,0.144926 0,0.144926c0,0 -0.042448,-0.102477 -0.144924,0c-0.102478,0.102477 0,0.144925 0,0.144925c0,0 -0.144926,0 -0.144926,0.144926c0,0 0,0 -0.144926,0.144926c0,0 -0.011032,-0.055461 -0.144926,0c-0.189354,0.078433 -0.144926,0.144925 -0.289852,0.144925c0,0 -0.144926,0.144926 -0.144926,0.144926c0,0 0,0 -0.144924,0c0,0 0,0.144926 0,0.144926c0,0 -0.144926,0 -0.144926,0.144926c0,0 -0.042448,-0.102478 -0.144926,0c-0.102478,0.102477 0,0.144925 0,0.144925c-0.144926,0 -0.144926,0 -0.144926,0c0,0 -0.042448,-0.102478 -0.144926,0c-0.102478,0.102478 0,0.144926 -0.144926,0.144926c0,0 -0.144926,0 -0.144926,0c-0.28985,0.144926 -0.438303,0.21633 -1.159406,0.144926c-0.735384,-0.072818 -1.578598,-0.596176 -1.884035,-0.869555c-0.691462,-0.618889 -1.766686,-2.156715 -2.028962,-2.608665c-0.325313,-0.560573 -0.434777,-0.869555 -0.724628,-1.159406c-0.144926,-0.144926 -0.268509,-0.314939 -0.434777,-0.434778c-0.262895,-0.189484 -0.580409,-0.275571 -0.724629,-0.289851c-0.735383,-0.072818 -0.869555,-0.144926 -1.449258,-0.144926c-0.144926,0 -0.624631,-0.048911 -1.014481,-0.289851c-0.174346,-0.107752 -0.579703,-0.289852 -0.579703,-0.289852c-0.144926,-0.144925 -0.289852,-0.289851 -0.289852,-0.289851c0,-0.144926 -0.070471,-0.409234 -0.144926,-0.724629c-0.133188,-0.564196 -0.071916,-0.711265 -0.144926,-1.304332c-0.017707,-0.14384 0.144926,-0.434777 0,-0.434777c-0.869555,0 0.456187,2.165686 0.724629,2.898516c0.157634,0.430333 0.579703,1.73911 0.869555,2.608665c0.144926,0.434777 0.216441,0.562103 0.289852,1.014481c0.023214,0.143055 0,0.434777 0,0.434777c0,0.144926 0,0.144926 0,0.289852c0,0 -0.025086,-0.268509 -0.144926,-0.434777c-0.189484,-0.262895 -0.579703,-1.449259 -0.869555,-2.028962c-0.434777,-0.869555 -0.72463,-1.304332 -1.159407,-2.173886c-0.144926,-0.289852 -0.409332,-0.883741 -0.579703,-1.159407c-0.38096,-0.616406 -0.650175,-0.699086 -0.724629,-1.014481c-0.033297,-0.141049 0,-0.289852 -0.144926,-0.289852l0,0" id="svg_15" stroke-width="3" fill="none"/>
  <path d="m0.543622,24.014809c0,0 -0.144926,0 -0.144926,0c-0.144926,0 -0.289852,0 -0.289852,0c-0.144926,0 -0.144926,0 -0.434777,0c0,0 0,0 0,0c0,0 0,0 0,0c0.144926,0 0.289852,0 0.289852,0c0.144926,0 0.289852,0 0.289852,0c0.144926,-0.144926 0.434777,-0.144926 0.434777,-0.144926c0.144926,-0.144924 0.289852,-0.144924 0.289852,-0.144924l0.144926,0l0,0l0,0" id="svg_16" fill-opacity="null" stroke-opacity="null" stroke-width="3" stroke="#00ff00" fill="none"/>
  <path d="m2.282732,3.145493c0,0 0.144926,0 0.289852,0c0,0 0.144926,0 0.289852,0c0.289852,0 0.434777,0 0.724629,0c0,0 0.289852,0 0.289852,0c0.144926,0.144926 0.289851,0.144926 0.289851,0.144926c0,0 0.144926,0.144926 0.144926,0.144926c0,0 0,0 0,0c-0.144926,0.144926 -0.316809,0.245294 -0.579703,0.434777c-0.166269,0.11984 -0.332299,0.187374 -0.434777,0.289852c-0.102478,0.102478 -0.144926,0 -0.144926,0c-0.144926,0 -0.121711,-0.001872 -0.144926,-0.144926c-0.073411,-0.452378 -0.077353,-0.738629 -0.289852,-1.594184c-0.110473,-0.444782 -0.259395,-0.880922 -0.434777,-1.304332c-0.124014,-0.299396 -0.042448,-0.477225 -0.144926,-0.579703c-0.102478,-0.102478 -0.144926,0 -0.144926,0c0,0 -0.144926,0 -0.144926,0c-0.144926,0 -0.144926,0 -0.289852,0c0,0 -0.144926,-0.144926 -0.144926,-0.144926c-0.144926,0 -0.144926,0 -0.144926,0c-0.144926,0 -0.144926,-0.144926 -0.144926,-0.144926c0,0 -0.144926,-0.144926 -0.144926,-0.144926c-0.144926,-0.144926 -0.187374,-0.042448 -0.289852,-0.144926c-0.102478,-0.102478 -0.211418,-0.100497 -0.289852,-0.289852c-0.055461,-0.133894 -0.144926,-0.144926 -0.144926,-0.144926c-0.144926,-0.144926 -0.144926,-0.144926 -0.144926,-0.144926l0,0" id="svg_17" fill-opacity="null" stroke-opacity="null" stroke-width="3" stroke="#00ff00" fill="none"/>
  <path d="m0.543622,24.014809c0,0 0.155957,-0.089466 0.289852,-0.144926c0.189354,-0.078432 0.579703,-0.28985 0.724629,-0.434776c0.144926,-0.144926 0.144926,-0.144926 0.289852,-0.289852c0,0 0.033297,0.148804 0,0.289852c-0.074455,0.315395 -0.289852,0.434776 -0.434778,0.579702c0,0 -0.144926,0.144926 -0.144926,0.144926l0,0.144926l0,0" id="svg_18" fill-opacity="null" stroke-opacity="null" stroke-width="3" stroke="#00ff00" fill="none"/>
  <line stroke-linecap="null" stroke-linejoin="null" id="svg_19" y2="11.696116" x2="24.166528" y1="0.246977" x1="2.427658" fill-opacity="null" stroke-opacity="null" stroke-width="3" stroke="#00ff00" fill="none"/>
  <line stroke-linecap="null" stroke-linejoin="null" id="svg_20" y2="13.2903" x2="24.891157" y1="24.739438" x1="1.99288" stroke-width="3" fill="none"/>
  <polyline stroke-linecap="round" id="svg_21" points="40.832996096008046,5.464306138073141 40.832996096008046,5.464306138073141 " stroke-width="3" fill="none"/>
  <path d="m23.152048,12.420745c0,0 0.144926,0 0.289852,0c0,0 0.119381,-0.215398 0.434776,-0.289852c0.141048,-0.033298 0.3323,-0.042447 0.434778,-0.144925c0.102478,-0.102478 0.144926,-0.144926 0.144926,-0.144926l0.144924,0l0,-0.144926l0,0" id="svg_26" stroke-width="3" stroke="#00ff00" fill="none"/>
 </g>
</svg>