<svg width="26" height="25" viewBox="0 0 26 25" fill="none" xmlns="http://www.w3.org/2000/svg">
<g clip-path="url(#clip0)">
<path d="M23.2198 17.7731C23.7106 18.0264 23.9066 18.6321 23.6149 19.1011C22.3826 21.0827 20.616 22.686 18.5094 23.7204C16.1026 24.9021 13.3797 25.2787 10.7426 24.7945C8.10547 24.3103 5.69393 22.991 3.864 21.0313C2.03407 19.0717 0.882728 16.5756 0.579965 13.9115C0.277201 11.2475 0.839059 8.55666 2.18259 6.23636C3.52611 3.91606 5.58011 2.08925 8.04132 1.02563C10.5025 -0.0379909 13.2405 -0.282051 15.851 0.329483C18.136 0.86476 20.2174 2.03072 21.863 3.68532C22.2524 4.07692 22.1974 4.71115 21.7759 5.06807L19.9635 6.60293C19.542 6.95984 18.9148 6.90214 18.5088 6.52768C17.4822 5.58067 16.2241 4.9103 14.8532 4.58917C13.1563 4.19167 11.3766 4.35031 9.77686 5.04166C8.17707 5.73302 6.84198 6.92044 5.96869 8.42864C5.09539 9.93683 4.73019 11.6859 4.92698 13.4175C5.12378 15.1491 5.87215 16.7716 7.06161 18.0454C8.25106 19.3191 9.81856 20.1767 11.5327 20.4914C13.2468 20.8062 15.0167 20.5614 16.5811 19.7933C17.8449 19.1727 18.9205 18.2371 19.7085 17.0839C20.0201 16.6279 20.6184 16.4309 21.1092 16.6841L23.2198 17.7731Z" fill="#ECE5EE"/>
<path d="M24.9572 10.2374C24.9667 10.8098 24.426 11.2322 23.8729 11.0846L16.4732 9.10912C15.7856 8.92556 15.604 8.03503 16.1648 7.5969L23.4379 1.91454C23.9987 1.4764 24.8188 1.86805 24.8306 2.57961L24.9572 10.2374Z" fill="#ECE5EE"/>
</g>
<defs>
<clipPath id="clip0">
<rect width="25" height="25" fill="white" transform="translate(0.5)"/>
</clipPath>
</defs>
</svg>
