<svg width="25" height="18" viewBox="0 0 25 18" fill="none" xmlns="http://www.w3.org/2000/svg">
<rect width="7.38636" height="5.11364" rx="1" transform="matrix(-1 0 0 1 7.38635 0)" fill="#16B4BE"/>
<rect width="7.38636" height="5.11364" rx="1" transform="matrix(-1 0 0 1 7.38635 6.25)" fill="#16B4BE"/>
<rect width="7.38636" height="5.11364" rx="1" transform="matrix(-1 0 0 1 7.38635 12.5)" fill="#16B4BE"/>
<rect width="7.95455" height="5.11364" rx="1" transform="matrix(-1 0 0 1 16.4773 0)" fill="#16B4BE"/>
<rect width="7.95455" height="5.11364" rx="1" transform="matrix(-1 0 0 1 16.4773 6.25)" fill="#16B4BE"/>
<rect width="7.95455" height="5.11364" rx="1" transform="matrix(-1 0 0 1 16.4773 12.5)" fill="#16B4BE"/>
<rect width="7.38636" height="5.11364" rx="1" transform="matrix(-1 0 0 1 25 0)" fill="#16B4BE"/>
<rect width="7.38636" height="5.11364" rx="1" transform="matrix(-1 0 0 1 25 6.25)" fill="#16B4BE"/>
<rect width="7.38636" height="5.11364" rx="1" transform="matrix(-1 0 0 1 25 12.5)" fill="#16B4BE"/>
</svg>
