<svg width="26" height="25" viewBox="0 0 26 25" fill="none" xmlns="http://www.w3.org/2000/svg">
<path fill-rule="evenodd" clip-rule="evenodd" d="M0 2.5C0 1.11929 1.11929 0 2.5 0L16 0C16.8284 0 17.5 0.671573 17.5 1.5C17.5 2.32843 16.8284 3 16 3L3 3L3 22L16 22C16.8284 22 17.5 22.6716 17.5 23.5C17.5 24.3284 16.8284 25 16 25L2.5 25C1.11929 25 0 23.8807 0 22.5L0 2.5Z" fill="#451A78"/>
<path fill-rule="evenodd" clip-rule="evenodd" d="M5 12.5C5 11.3954 5.89543 10.5 7 10.5L22.5 10.5C23.6046 10.5 24.5 11.3954 24.5 12.5C24.5 13.6046 23.6046 14.5 22.5 14.5L7 14.5C5.89543 14.5 5 13.6046 5 12.5Z" fill="#451A78"/>
<path d="M24.9917 11.5999C25.4005 11.9933 25.4005 12.6477 24.9917 13.0411L18.2673 19.5117C17.632 20.123 16.5739 19.6728 16.5739 18.7911L16.5739 5.84989C16.5739 4.96824 17.632 4.518 18.2673 5.12932L24.9917 11.5999Z" fill="#451A78"/>
</svg>
