<svg width="33" height="32" viewBox="0 0 33 32" fill="none" xmlns="http://www.w3.org/2000/svg">
<path fill-rule="evenodd" clip-rule="evenodd" d="M0 3.2C0 1.43269 1.43269 0 3.2 0L20.48 0C21.5404 0 22.4 0.859613 22.4 1.92C22.4 2.98039 21.5404 3.84 20.48 3.84L3.84 3.84L3.84 28.16L20.48 28.16C21.5404 28.16 22.4 29.0196 22.4 30.08C22.4 31.1404 21.5404 32 20.48 32L3.2 32C1.43269 32 0 30.5673 0 28.8L0 3.2Z" fill="#e56f66"/>
<path fill-rule="evenodd" clip-rule="evenodd" d="M6.3999 15.9999C6.3999 14.5861 7.54605 13.4399 8.9599 13.4399L28.7999 13.4399C30.2138 13.4399 31.3599 14.5861 31.3599 15.9999C31.3599 17.4138 30.2138 18.5599 28.7999 18.5599L8.9599 18.5599C7.54605 18.5599 6.3999 17.4138 6.3999 15.9999Z" fill="#e56f66"/>
<path d="M31.9894 14.8479C32.5127 15.3515 32.5127 16.189 31.9894 16.6926L23.3821 24.975C22.5689 25.7574 21.2145 25.1811 21.2145 24.0526L21.2145 7.48788C21.2145 6.35935 22.5689 5.78304 23.3821 6.56553L31.9894 14.8479Z" fill="#e56f66"/>
</svg>
