<svg width="40" height="40" viewBox="0 0 40 40" fill="none" xmlns="http://www.w3.org/2000/svg">
<path fill-rule="evenodd" clip-rule="evenodd" d="M20.7267 39.987C31.4358 39.6046 40 30.8024 40 20C40 8.9543 31.0457 0 20 0C8.95431 0 0 8.9543 0 20C0 20.2524 0.00467452 20.5037 0.0139417 20.7538L0 20.7408V37.037V37.1469L0.0020617 37.1486C0.0607258 38.7333 1.36392 39.9999 2.96296 39.9999C3.11669 39.9999 3.26769 39.9882 3.4151 39.9657L3.45679 40.0001H20.7407L20.7267 39.987ZM37.037 19.9999C37.037 29.4092 29.4092 37.037 19.9999 37.037C10.5906 37.037 2.96289 29.4092 2.96289 19.9999C2.96289 10.5906 10.5906 2.96289 19.9999 2.96289C29.4092 2.96289 37.037 10.5906 37.037 19.9999ZM9.07409 11.8518C8.15361 11.8518 7.40742 12.5979 7.40742 13.5184V24.9999C7.40742 25.9204 8.15361 26.6666 9.07409 26.6666H30.9259C31.8464 26.6666 32.5926 25.9204 32.5926 24.9999V13.5184C32.5926 12.5979 31.8464 11.8518 30.9259 11.8518H9.07409Z" fill="white"/>
</svg>
