<svg width="151" height="71" viewBox="0 0 151 71" fill="none" xmlns="http://www.w3.org/2000/svg">
<path d="M16.5687 4.18778C16.4594 2.73719 17.607 1.5 19.0616 1.5H51.5185C52.9732 1.5 54.1207 2.73719 54.0115 4.18778L51.2797 40.4545H19.3005L16.5687 4.18778Z" stroke="#0D467B" stroke-width="3"/>
<rect x="9.92871" y="46.6818" width="50.7228" height="9.90909" rx="4.95455" stroke="#0D467B" stroke-width="3"/>
<line y1="-1.5" x2="13.2903" y2="-1.5" transform="matrix(0.23778 0.971319 -0.96892 0.247374 46.3506 58.0909)" stroke="#0D467B" stroke-width="3"/>
<line y1="-1.5" x2="13.2903" y2="-1.5" transform="matrix(-0.23778 0.971319 0.96892 0.247374 24.2295 58.0909)" stroke="#0D467B" stroke-width="3"/>
<line x1="25.7295" y1="41.9546" x2="25.7295" y2="45.1819" stroke="#0D467B" stroke-width="3"/>
<line x1="44.6904" y1="41.9546" x2="44.6904" y2="45.1819" stroke="#0D467B" stroke-width="3"/>
<path d="M13.1676 46.7955C13.1676 43.0303 12.2195 35.5 8.42735 35.5C4.63516 35.5 4.74049 35.5 5.26719 35.5" stroke="#0D467B" stroke-width="3"/>
<path d="M55.8324 46.7955C55.8324 43.0303 56.7805 35.5 60.5726 35.5C64.3648 35.5 64.2595 35.5 63.7328 35.5" stroke="#0D467B" stroke-width="3"/>
<path d="M40.0303 25.8182L35.2901 22.5909M30.5498 19.3636L35.2901 22.5909M35.2901 22.5909L40.0303 19.3636L30.5498 25.8182" stroke="#0D467B" stroke-width="2"/>
<path d="M96.5687 4.18778C96.4594 2.73719 97.607 1.5 99.0616 1.5H131.519C132.973 1.5 134.121 2.73719 134.011 4.18778L131.28 40.4545H99.3005L96.5687 4.18778Z" stroke="#0D467B" stroke-width="3"/>
<rect x="89.9287" y="46.6818" width="50.7228" height="9.90909" rx="4.95455" stroke="#0D467B" stroke-width="3"/>
<line y1="-1.5" x2="13.2903" y2="-1.5" transform="matrix(0.23778 0.971319 -0.96892 0.247374 126.351 58.0909)" stroke="#0D467B" stroke-width="3"/>
<line y1="-1.5" x2="13.2903" y2="-1.5" transform="matrix(-0.23778 0.971319 0.96892 0.247374 104.229 58.0909)" stroke="#0D467B" stroke-width="3"/>
<line x1="105.729" y1="41.9546" x2="105.729" y2="45.1819" stroke="#0D467B" stroke-width="3"/>
<line x1="124.69" y1="41.9546" x2="124.69" y2="45.1819" stroke="#0D467B" stroke-width="3"/>
<path d="M93.1676 46.7955C93.1676 43.0303 92.2195 35.5 88.4274 35.5C84.6352 35.5 84.7405 35.5 85.2672 35.5" stroke="#0D467B" stroke-width="3"/>
<path d="M135.832 46.7955C135.832 43.0303 136.78 35.5 140.573 35.5C144.365 35.5 144.26 35.5 143.733 35.5" stroke="#0D467B" stroke-width="3"/>
<path d="M120.03 25.8182L115.29 22.5909M110.55 19.3636L115.29 22.5909M115.29 22.5909L120.03 19.3636L110.55 25.8182" stroke="#0D467B" stroke-width="2"/>
<line y1="69.5" x2="151" y2="69.5" stroke="#0D467B" stroke-width="3"/>
</svg>
