<svg xmlns="http://www.w3.org/2000/svg" viewBox="0 0 281.49 274.55"><defs><style>.cls-1{fill:#141e75;}.cls-2{fill:#fff;}</style></defs><g id="Layer_2" data-name="Layer 2"><g id="Layer_1-2" data-name="Layer 1"><rect class="cls-1" x="85.31" y="51.01" width="110.86" height="59.85"/><path class="cls-2" d="M58.9,137.28H205a17.56,17.56,0,0,1,17.56,17.56v75.74A17.56,17.56,0,0,1,205,248.14H58.9a0,0,0,0,1,0,0V137.28A0,0,0,0,1,58.9,137.28Z" transform="translate(333.45 51.97) rotate(90)"/><path class="cls-2" d="M0,17.56V93.3a17.56,17.56,0,0,0,17.56,17.56H85.31a55.43,55.43,0,0,1,55.43-55.43h0a55.43,55.43,0,0,1,55.43,55.43h67.76A17.56,17.56,0,0,0,281.49,93.3V17.56A17.56,17.56,0,0,0,263.93,0H17.56A17.56,17.56,0,0,0,0,17.56Z"/></g></g></svg>