<svg width="25" height="25" viewBox="0 0 25 25" fill="none" xmlns="http://www.w3.org/2000/svg">
<path fill-rule="evenodd" clip-rule="evenodd" d="M22.5 25L9 25C8.17157 25 7.5 24.3284 7.5 23.5C7.5 22.6716 8.17157 22 9 22L22 22L22 3L9 3C8.17157 3 7.5 2.32842 7.5 1.5C7.5 0.67157 8.17157 -3.37854e-06 9 -3.30611e-06L22.5 -2.12591e-06C23.8807 -2.0052e-06 25 1.11929 25 2.5L25 22.5C25 23.8807 23.8807 25 22.5 25Z" fill="black"/>
<path fill-rule="evenodd" clip-rule="evenodd" d="M0 12.5C0 11.3954 0.89543 10.5 2 10.5L17.5 10.5C18.6046 10.5 19.5 11.3954 19.5 12.5C19.5 13.6046 18.6046 14.5 17.5 14.5L2 14.5C0.89543 14.5 0 13.6046 0 12.5Z" fill="black"/>
<path d="M19.992 11.5999C20.4008 11.9933 20.4008 12.6477 19.992 13.0411L13.2675 19.5117C12.6322 20.123 11.5741 19.6728 11.5741 18.7911L11.5741 5.84989C11.5741 4.96824 12.6322 4.518 13.2675 5.12932L19.992 11.5999Z" fill="black"/>
</svg>
