<svg width="25" height="25" viewBox="0 0 25 25" fill="none" xmlns="http://www.w3.org/2000/svg">
<path fill-rule="evenodd" clip-rule="evenodd" d="M25 12.5C25 19.4036 19.4036 25 12.5 25C5.59644 25 0 19.4036 0 12.5C0 5.59644 5.59644 0 12.5 0C19.4036 0 25 5.59644 25 12.5ZM7.5 8C7.5 7.44771 7.94772 7 8.5 7H10.5C11.0523 7 11.5 7.44772 11.5 8V17C11.5 17.5523 11.0523 18 10.5 18H8.5C7.94772 18 7.5 17.5523 7.5 17V8ZM14.5 7C13.9477 7 13.5 7.44771 13.5 8V17C13.5 17.5523 13.9477 18 14.5 18H16.5C17.0523 18 17.5 17.5523 17.5 17V8C17.5 7.44772 17.0523 7 16.5 7H14.5Z" fill="#00aa00"/>
</svg>
