<svg width="25" height="25" viewBox="0 0 25 25" fill="none" xmlns="http://www.w3.org/2000/svg">
<path fill-rule="evenodd" clip-rule="evenodd" d="M17 5.42844V4.5C17 2.01472 14.9853 0 12.5 0C10.0148 0 8.00004 2.01472 8.00004 4.5V11.7154C8.00004 12.5009 8.20129 13.2394 8.55503 13.8821L7.52788 14.9103C7.18546 14.3134 6.94963 13.6583 6.83288 12.9755C6.73979 12.4311 6.30073 11.9802 5.74844 11.9802H5.28349C4.7312 11.9802 4.27735 12.4295 4.34264 12.9779C4.50226 14.3186 4.98116 15.5977 5.73446 16.7055L1.13761 21.3071C0.627009 21.8182 0.61705 22.6566 1.11536 23.1797C1.61368 23.7028 2.43156 23.7125 2.94216 23.2014L23.4441 2.6785C23.9547 2.16737 23.9647 1.32897 23.4664 0.805861C22.9681 0.282755 22.1502 0.273039 21.6396 0.78416L17 5.42844ZM12.1946 16.2052L17 11.3948V11.7154C17 14.2007 14.9853 16.2154 12.5 16.2154C12.3974 16.2154 12.2955 16.212 12.1946 16.2052ZM10.84 17.5612L8.92517 19.4779C9.62132 19.8188 10.3636 20.0595 11.1303 20.1909V22.2242H8.52427C7.97198 22.2242 7.52427 22.672 7.52427 23.2242V24C7.52427 24.5522 7.97198 25 8.52427 25H16.4751C17.0274 25 17.4751 24.5522 17.4751 24V23.2242C17.4751 22.672 17.0274 22.2242 16.4751 22.2242H13.8691V20.191C15.5404 19.9048 17.0956 19.0991 18.31 17.8684C19.617 16.5438 20.4382 14.8188 20.6574 12.9779C20.7227 12.4295 20.2688 11.9802 19.7165 11.9802H19.2516C18.6993 11.9802 18.2602 12.4311 18.1671 12.9755C17.966 14.152 17.4113 15.2463 16.567 16.1019C15.4884 17.1951 14.0254 17.8092 12.5 17.8092C11.9325 17.8092 11.3736 17.7242 10.84 17.5612Z" fill="#451A78"/>
</svg>
