<?xml version="1.0" encoding="utf-8"?>
<!-- Generator: Adobe Illustrator 26.0.0, SVG Export Plug-In . SVG Version: 6.00 Build 0)  -->
<svg version="1.1" id="Layer_1" xmlns="http://www.w3.org/2000/svg" xmlns:xlink="http://www.w3.org/1999/xlink" x="0px" y="0px"
	 viewBox="0 0 588.3 581.3" style="enable-background:new 0 0 588.3 581.3;" xml:space="preserve">
<style type="text/css">
	.st0{fill:none;stroke:#FFFFFF;stroke-width:9.5253;stroke-miterlimit:10;}
</style>
<path class="st0" d="M423.1,151H165.3c-7.9,0-14.3,6.4-14.3,14.3v84.2c0,7.9,6.4,14.3,14.3,14.3h72.4v152.2
	c0,7.9,6.4,14.3,14.3,14.3h84.2c7.9,0,14.3-6.4,14.3-14.3V263.8H423c7.9,0,14.3-6.4,14.3-14.3v-84.2C437.4,157.5,431,151,423.1,151z
	 M350.5,263.8H237.7c0-31.1,25.2-56.3,56.4-56.3l0,0C325.3,207.5,350.6,232.6,350.5,263.8C350.6,263.8,350.6,263.8,350.5,263.8
	L350.5,263.8z"/>
</svg>
